<?xml version="1.0" encoding="utf-8"?>
<!-- Generator: Adobe Illustrator 24.0.1, SVG Export Plug-In . SVG Version: 6.00 Build 0)  -->
<svg version="1.1" id="Layer_1" xmlns="http://www.w3.org/2000/svg" xmlns:xlink="http://www.w3.org/1999/xlink" x="0px" y="0px"
	 viewBox="0 0 292 78" style="enable-background:new 0 0 292 78;" xml:space="preserve">
<style type="text/css">
	.st0{display:none;clip-path:url(#SVGID_2_);}
	.st1{display:none;opacity:0.54;clip-path:url(#SVGID_2_);fill:none;stroke:#B49679;stroke-width:4.252;stroke-miterlimit:10;}
	.st2{clip-path:url(#SVGID_2_);fill:#EB2027;}
	.st3{clip-path:url(#SVGID_2_);fill:#FFFFFF;}
	.st4{fill:#231F20;}
</style>
<g>
	<defs>
		<rect id="SVGID_1_" x="-148.58" y="-185.73" width="374.36" height="529.46"/>
	</defs>
	<clipPath id="SVGID_2_">
		<use xlink:href="#SVGID_1_"  style="overflow:visible;"/>
	</clipPath>
	<path class="st0" d="M75.77,10c0,0-0.09-0.13-0.45-0.23c-3.3-0.9-20.94-5.56-33.54-5.56c-14.09,0-30.82,4.98-33.12,5.68
		c-0.18,0.05-0.27,0.17-0.27,0.17l0,0.03v0.24c0,45.09,33.78,66.98,33.78,66.98s33.48-22.55,33.69-66.97
		C75.86,10.2,75.83,10.13,75.77,10z M42.16,73.88c0,0-31-20.08-31-61.46V12.2l0-0.02c0,0,0.08-0.11,0.25-0.16
		c2.11-0.65,17.47-5.21,30.4-5.21c11.57,0,27.76,4.27,30.78,5.1c0.32,0.09,0.41,0.21,0.41,0.21c0.06,0.12,0.09,0.18,0.09,0.31
		C72.89,53.19,42.16,73.88,42.16,73.88z"/>
	<path class="st1" d="M74.21,11.55c0,0-0.09-0.11-0.25-0.17c-2.19-0.67-18.12-5.41-31.53-5.41c-12,0-28.79,4.43-31.93,5.29
		c-0.34,0.09-0.42,0.22-0.42,0.22C10,11.61,9.98,11.67,9.98,11.8c0.2,42.29,32.08,63.75,32.08,63.75S74.21,54.72,74.21,11.8v-0.22"
		/>
	<path class="st2" d="M74.21,11.55c0,0-0.09-0.11-0.25-0.17c-2.19-0.67-18.12-5.41-31.53-5.41c-12,0-28.79,4.43-31.93,5.29
		c-0.34,0.09-0.42,0.22-0.42,0.22C10,11.61,9.98,11.67,9.98,11.8c0.2,42.29,32.08,63.75,32.08,63.75S74.21,54.72,74.21,11.8v-0.22"
		/>
	<path class="st3" d="M59.65,18.32c-5.94-2.38-15.99,14.71-15.7,24.11c0.27,8.59,9.76,7.24,13.15-1.35c0.6-1.53,2.82-8.55-1.82-8.75
		c-0.54-0.02-0.36,0.37,0.21,0.46c0.65,0.11,1.37,0.85,1.42,1.96c0.28,6.22-8.78,16.25-9.96,9.46c-0.9-5.15,5.98-26.96,12.26-24.98
		c2.77,0.87-0.52,5.84-0.95,6.48c-0.95,1.43-0.1,2.51,1.16,0.95C59.79,26.2,63.1,19.7,59.65,18.32 M48.22,21.25
		c0.03-1.32-0.73-3.04-2.28-3.04c-3.95,0-7.66,7.83-10.38,14.94c-1.75,0.04-4.64-0.66-6-2c-1.06-1.04-1.31-0.65-0.8,0
		c1.36,1.74,4.51,2.6,6.52,2.6h0.05c-1.92,5.11-3.26,9.69-3.81,10.59c-4.76-2.76-8.55-1.37-8.49,1.74c0.05,3.03,4.92,3.89,8.22,1.06
		c12.35,7.7,21.2,11.25,26.34-0.61c0.37-0.88,0.7-2.58-0.52-0.72c-4.08,6.18-10.71,7.51-23.71-0.64c2.75-3.09,4.42-7.7,5.92-12.11
		C44.09,31.01,48.08,26.43,48.22,21.25 M30.06,46.42c-1.65,1.92-6.34,1.82-6.18-0.4C24.05,43.67,27.94,44.93,30.06,46.42
		 M46.93,20.02c0.07,2.19-2.81,8.27-7.25,11.87c0.97-2.99,3.61-12.98,6.31-12.98C46.36,18.91,46.9,19.19,46.93,20.02"/>
	<path class="st0" d="M135.47,146.57v-1.23c-0.09-0.03-0.16-0.04-0.31-0.04c-0.89,0-1.52,0.55-1.99,1.38h-0.03v-1.18h-1.12v7.08
		h1.19v-4.11c0-1.03,0.7-1.9,1.81-1.9H135.47z M116.73,152.52c0.27,0,0.45-0.08,0.65-0.14v-0.87c-0.14,0.03-0.28,0.05-0.39,0.05
		c-0.25,0-0.39-0.12-0.39-0.42v-4.08c0-1.81-2.06-1.98-2.62-1.98c-1.75,0-2.87,0.66-2.92,2.36h1.1c0.08-0.54,0.27-1.37,1.62-1.37
		c1.12,0,1.67,0.41,1.67,1.15c0,0.7-0.34,0.81-0.62,0.84l-1.96,0.24c-1.98,0.24-2.15,1.63-2.15,2.22c0,1.22,0.92,2.04,2.22,2.04
		c1.38,0,2.1-0.65,2.56-1.15C115.51,151.97,115.68,152.52,116.73,152.52 M115.4,149.93c0,0.95-1.08,1.67-2.19,1.67
		c-0.89,0-1.29-0.46-1.29-1.23c0-0.89,0.94-1.07,1.52-1.15c1.48-0.19,1.77-0.3,1.96-0.45V149.93z M91.26,149.22h5.17
		c0-2.5-1-4.13-3.05-4.13c-2.34,0-3.4,1.75-3.4,3.94c0,2.04,1.18,3.55,3.17,3.55c1.14,0,1.6-0.27,1.92-0.49
		c0.89-0.6,1.22-1.6,1.26-1.94h-1.19c-0.04,0.53-0.7,1.39-1.83,1.39C91.95,151.55,91.26,150.7,91.26,149.22 M91.26,148.28
		c0-1.1,0.87-2.11,1.96-2.11c1.45,0,1.91,1.01,1.98,2.11H91.26z M73.43,152.58l2.56-9.72h-1.45l-1.81,7.9H72.7l-2.18-7.9h-1.44
		l-2.18,7.9h-0.03l-1.81-7.9h-1.42l2.53,9.72h1.38l2.25-8.05h0.03l2.22,8.05H73.43z M32.1,147.13c0-0.88,1.04-1,1.41-1
		c1.5,0,1.67,0.75,1.68,1.19h1.15c0-0.35-0.18-2.22-2.71-2.22c-1.39,0-2.68,0.7-2.68,2.26c0,0.97,0.65,1.48,1.64,1.72l1.38,0.34
		c1.01,0.26,1.41,0.45,1.41,1.02c0,0.78-0.77,1.12-1.63,1.12c-1.68,0-1.84-0.89-1.88-1.45h-1.15c0.04,0.85,0.24,2.48,3.05,2.48
		c1.6,0,2.8-0.88,2.8-2.34c0-0.96-0.52-1.5-1.99-1.87l-1.19-0.3C32.46,147.84,32.1,147.71,32.1,147.13 M14.49,144.77h0.91l-1.2-1.91
		h-1.46L14.49,144.77z M-2.77,152.58h1.19v-4.82c0-2.02-1.38-2.46-2.48-2.46c-1.22,0-1.88,0.82-2.14,1.2h-0.03v-1h-1.12v7.08h1.19
		v-3.86c0-1.92,1.19-2.36,1.87-2.36c1.17,0,1.52,0.62,1.52,1.85V152.58z M-27.17,149.22H-22c0-2.5-1-4.13-3.05-4.13
		c-2.34,0-3.4,1.75-3.4,3.94c0,2.04,1.18,3.55,3.17,3.55c1.14,0,1.6-0.27,1.92-0.49c0.89-0.6,1.22-1.6,1.26-1.94h-1.19
		c-0.04,0.53-0.7,1.39-1.83,1.39C-26.48,151.55-27.17,150.7-27.17,149.22 M-27.17,148.28c0-1.1,0.87-2.11,1.96-2.11
		c1.45,0,1.91,1.01,1.98,2.11H-27.17z M-44.47,152.58h1.27v-9.72h-1.87l-2.76,8.21h-0.03l-2.78-8.21h-1.88v9.72h1.27v-5.74
		c0-0.28-0.03-1.52-0.03-2.41h0.03l2.73,8.15h1.3l2.73-8.16h0.03c0,0.91-0.03,2.14-0.03,2.42V152.58z"/>
	<path class="st0" d="M135.46,97.22v-0.7h-8.9v0.7h3.85v23.31h-0.08L116.4,96.52h-10.4v0.7h3.85v34.51h-3.85v0.71h8.89v-0.71h-3.85
		V100.1h0.08l18.84,32.34h1.66V97.22H135.46z M85.76,132.44h14.06v-0.71h-3.6L83.26,95.71h-2.08l-12.27,36.02h-3.51v0.71h8.44v-0.71
		h-3.72l4.64-13.52H84.8l4.85,13.52h-3.89V132.44z M84.59,117.51h-9.63l4.69-13.77L84.59,117.51z M45.5,132.44h13.73v-0.71h-3.85
		V97.22h3.85v-0.7H48.24l-7.37,25.12h-0.08l-7.24-25.12H22.26v0.7h3.85v34.51h-3.85v0.71h8.9v-0.71h-3.85V97.22h0.08l10.34,35.21
		h1.19l10.3-35.21h0.08v34.51H45.5V132.44z M3.89,132.44h0.67v-10.69H3.89c-0.25,1.38-0.64,2.71-1.17,3.99
		c-0.53,1.28-1.19,2.41-1.97,3.4c-0.78,0.99-1.68,1.79-2.7,2.39c-1.02,0.61-2.15,0.91-3.4,0.91h-0.01h0c-0.34,0-0.67-0.02-1-0.04
		c-0.08-0.01-0.82-0.09-1.09-0.14c-0.15-0.03-0.62-0.15-0.7-0.17c-0.78-0.23-1.45-0.56-2.02-1c-1.09-0.85-1.93-2.02-2.52-3.48
		c-0.44-1.17-0.79-2.57-1.03-4.24c-0.17-1.13-0.29-2.4-0.37-3.82c-0.08-1.61-0.12-3.31-0.13-5.11c0-1.8,0.05-3.5,0.13-5.11
		c0.08-1.42,0.21-2.69,0.37-3.82c0.24-1.66,0.59-3.07,1.03-4.24c0.59-1.46,1.43-2.63,2.52-3.48c0.57-0.44,1.25-0.78,2.02-1
		c0.09-0.02,0.55-0.14,0.7-0.17c0.27-0.05,1.01-0.14,1.09-0.14c0.32-0.03,0.65-0.04,1-0.04c1.26,0,2.39,0.3,3.41,0.91
		c1.02,0.6,1.92,1.4,2.7,2.4c0.78,0.99,1.44,2.13,1.97,3.41c0.53,1.28,0.92,2.61,1.17,3.98h0.67V96.42H3.89
		c-0.14,0.4-0.31,0.68-0.5,0.83c-0.2,0.15-0.49,0.23-0.88,0.23c-0.34,0-0.77-0.09-1.3-0.28c-0.53-0.19-1.14-0.39-1.82-0.61
		c-0.68-0.22-1.43-0.42-2.24-0.6c-0.81-0.19-1.66-0.28-2.55-0.28c-2.04,0-4,0.48-5.9,1.44c-1.9,0.96-3.56,2.27-5,3.93
		c-1.44,1.66-2.59,3.62-3.45,5.88c-0.87,2.25-1.3,4.69-1.3,7.32c0,0.05,0,0.1,0,0.15c0,0.05,0,0.1,0,0.15c0,2.62,0.43,5.06,1.3,7.32
		c0.87,2.25,2.02,4.21,3.45,5.88c1.44,1.66,3.1,2.97,5,3.93c1.9,0.96,3.87,1.44,5.9,1.44c0.89,0,1.74-0.09,2.55-0.28
		c0.81-0.18,1.56-0.39,2.24-0.6c0.68-0.22,1.29-0.42,1.82-0.61c0.53-0.18,0.96-0.28,1.3-0.28c0.39,0,0.68,0.08,0.88,0.23
		C3.58,131.76,3.75,132.04,3.89,132.44 M-52.51,132.44h26.54v-11.4h-0.54c-0.36,1.95-0.87,3.61-1.53,4.97
		c-0.65,1.36-1.4,2.47-2.22,3.33c-0.82,0.86-1.7,1.47-2.64,1.84c-0.94,0.37-1.86,0.56-2.79,0.56h-6.91V97.22h3.85v-0.7h-13.77v0.7
		h3.85v34.51h-3.85V132.44z"/>
</g>
<path class="st4" d="M282.62,70.91c0-0.99-0.28-1.83-0.84-2.53c-0.05-0.07-0.1-0.06-0.16,0.01l-0.68,0.99
	c0.31,0.35,0.54,0.72,0.67,1.1c-0.18,0.05-0.48,0.08-0.91,0.08c-0.18,0-0.45-0.01-0.81-0.03c-0.36-0.02-0.63-0.03-0.81-0.03h-23.72
	V70.5h-8.58c-0.01-0.57-0.2-1.09-0.58-1.57c-0.33-0.41-0.61-0.61-0.85-0.61c-0.37,0-0.71,0.31-1.02,0.94
	c-0.27,0.54-0.41,1.01-0.41,1.41c0,0.67,0.7,1.05,2.09,1.13c-0.2,0.45-0.53,0.81-0.98,1.08c-0.45,0.27-0.94,0.41-1.47,0.41
	c-0.54,0-1.01-0.11-1.41-0.35c-0.09-0.05-0.16-0.08-0.21-0.08c-0.04,0-0.06,0.02-0.06,0.05c0,0.04,0.03,0.1,0.09,0.17
	c0.29,0.36,0.61,0.66,0.98,0.92c0.45,0.31,0.87,0.46,1.27,0.46c0.7,0,1.31-0.38,1.83-1.13c0.36-0.51,0.58-1.04,0.67-1.58h7.4h1.23
	h23.75c0.18,0,0.44,0.01,0.8,0.04c0.36,0.03,0.62,0.04,0.8,0.04c1.17,0,1.79-0.09,1.87-0.26C282.61,71.53,282.62,71.31,282.62,70.91
	 M245.96,70.53c-0.53,0-0.98-0.11-1.36-0.34c0.15-0.34,0.32-0.51,0.5-0.51c0.14,0,0.31,0.11,0.5,0.34
	C245.75,70.18,245.87,70.35,245.96,70.53 M239.7,70.57c0-0.06,0-0.13,0-0.22c0-0.81-0.1-1.38-0.3-1.69l-0.8,0.85
	c0.2,0.33,0.3,0.65,0.32,0.98c-0.09,0.07-0.27,0.1-0.54,0.1c-0.48,0-0.85-0.09-1.12-0.28c0.17-0.36,0.26-0.71,0.26-1.04
	c0-0.17-0.03-0.31-0.08-0.43l-0.86,0.86c0.06,0.12,0.09,0.23,0.09,0.35c0,0.12-0.03,0.24-0.09,0.36c-0.19,0.06-0.58,0.09-1.17,0.09
	c-0.66,0-1.09-0.03-1.31-0.09c0.17-0.4,0.25-0.76,0.25-1.09c0-0.19-0.03-0.36-0.09-0.53l-0.83,0.85c0.05,0.15,0.08,0.3,0.08,0.44
	c0,0.1-0.02,0.21-0.05,0.3c-0.15,0.08-0.46,0.12-0.96,0.12h-24.14v0h-9.57c-0.26-0.01-0.44-0.05-0.5-0.15
	c-0.05-0.22-0.08-0.4-0.09-0.55l-0.15-3.75c0-0.08-0.02-0.13-0.05-0.13c-0.05,0.03-0.09,0.05-0.12,0.07l-0.83,0.71l0.29,3.87
	c0.03,0.36,0.1,0.63,0.21,0.81c0.16,0.24,0.41,0.37,0.77,0.37h0.47h0.31h7.16h2.11h23.9c0.5,0,0.89-0.08,1.18-0.25
	c0.32,0.17,0.93,0.25,1.83,0.25c0.42,0,0.75-0.04,0.98-0.11c0.19-0.06,0.37-0.17,0.55-0.32c0.2,0.11,0.49,0.2,0.85,0.29
	c0.41,0.1,0.8,0.15,1.15,0.15c0.56,0,0.84-0.09,0.85-0.27L239.7,70.57z M238.7,68.17l0.51-0.73l-1.07-0.55l-0.39,0.56l-1-0.52
	l-0.52,0.72l1.15,0.58l0.4-0.55L238.7,68.17z M237.58,67.04l0.48-0.74l-1.01-0.53l-0.5,0.7L237.58,67.04z M192.9,71.58
	c0.17-0.14,0.24-0.52,0.2-1.13c-0.01-0.23-0.4-0.61-1.18-1.15c-0.62-0.43-1.14-0.74-1.55-0.93c0.33-0.15,0.72-0.31,1.18-0.45
	c0.18-0.06,0.58-0.18,1.22-0.37c0.18-0.53,0.25-0.81,0.23-0.83c-0.01-0.01-0.06-0.01-0.15,0.01c-0.51,0.11-1.19,0.33-2.05,0.67
	c-0.9,0.35-1.42,0.61-1.57,0.78c-0.03,0.03-0.06,0.12-0.09,0.26c-0.02,0.09-0.03,0.16-0.03,0.21c0,0.03,0,0.05,0.01,0.06
	c0.07,0.15,0.29,0.37,0.67,0.64l0.15-0.18c0.71,0.38,1.39,0.84,2.03,1.39c-0.67,0.12-1.76,0.18-3.27,0.18c-0.62,0-1-0.01-1.13-0.03
	c-0.45-0.08-0.67-0.29-0.67-0.64c0-0.04,0-0.14,0.02-0.27c0.01-0.15-0.01-0.22-0.07-0.22c-0.05,0-0.11,0.05-0.16,0.16
	c-0.17,0.33-0.26,0.65-0.26,0.97c0,0.85,0.75,1.27,2.24,1.27c0.8,0,1.67-0.04,2.6-0.13C192.25,71.77,192.79,71.68,192.9,71.58
	 M183.43,64.61c0.01-0.03,0.02-0.05,0.02-0.07c0-0.03-0.01-0.05-0.04-0.05c-0.03,0-0.05,0.02-0.07,0.04
	c-0.15,0.17-0.38,0.25-0.69,0.25c-0.15,0-0.38-0.04-0.67-0.11c-0.29-0.07-0.52-0.11-0.67-0.11c-0.25,0-0.45,0.09-0.61,0.27
	c-0.11,0.12-0.18,0.25-0.21,0.38c-0.01,0.05-0.01,0.09,0.02,0.11c0.03,0.01,0.06,0,0.1-0.03c0.19-0.16,0.35-0.24,0.5-0.24
	c0.19,0,0.46,0.04,0.83,0.11c0.36,0.07,0.64,0.11,0.83,0.11C183.04,65.27,183.27,65.05,183.43,64.61 M177.47,71.52
	c0.18-0.26,0.27-0.78,0.27-1.58c0-0.69-0.17-1.29-0.5-1.8c-0.3-0.45-0.6-0.67-0.92-0.67c-0.25,0-0.58,0.25-0.98,0.76
	c-0.39,0.49-0.59,0.85-0.59,1.09c0,0.25,0.18,0.49,0.55,0.71c0.26,0.16,0.69,0.35,1.3,0.57c-0.29,0-0.73-0.02-1.32-0.05
	c-0.47-0.02-17.58-0.04-24.58-0.04V70.5H142c-0.26-0.01-0.44-0.05-0.5-0.15c-0.05-0.22-0.08-0.4-0.09-0.55l-0.15-3.75
	c0-0.08-0.02-0.13-0.05-0.13c-0.05,0.03-0.09,0.05-0.12,0.07l-0.83,0.71l0.29,3.87c0.03,0.36,0.1,0.63,0.21,0.81
	c0.15,0.24,0.41,0.37,0.77,0.37h0.47h0.31h8.4h23.6c0.18,0,0.45,0.01,0.81,0.03c0.36,0.02,0.63,0.03,0.81,0.03
	C176.81,71.81,177.33,71.71,177.47,71.52 M177.14,69.75c-0.8-0.33-1.42-0.62-1.84-0.87c0.29-0.39,0.58-0.58,0.86-0.58
	c0.18,0,0.37,0.17,0.58,0.51C176.89,69.08,177.03,69.39,177.14,69.75 M177.14,67.22l0.5-0.66l-1.03-0.59l-0.49,0.67L177.14,67.22z
	 M175.62,67.28l0.5-0.66l-1.02-0.58l-0.49,0.66L175.62,67.28z M136.64,71.57c0.02-0.04,0.03-0.26,0.03-0.65
	c0-0.99-0.28-1.83-0.84-2.53c-0.05-0.07-0.11-0.06-0.16,0.01l-0.68,0.99c0.31,0.35,0.54,0.72,0.67,1.1
	c-0.18,0.05-0.48,0.08-0.91,0.08c-0.18,0-0.45-0.01-0.81-0.03c-0.36-0.02-0.63-0.03-0.81-0.03h-23.72V70.5h-8.69
	c-0.26-0.01-0.44-0.05-0.51-0.15c-0.05-0.22-0.08-0.4-0.09-0.55l-0.15-3.75c0-0.08-0.02-0.13-0.05-0.13
	c-0.05,0.03-0.09,0.05-0.12,0.07l-0.83,0.71l0.28,3.87c0.03,0.36,0.1,0.63,0.21,0.81c0.15,0.24,0.41,0.37,0.77,0.37h0.47h0.31h5.42
	h2.98h23.75c0.18,0,0.44,0.01,0.8,0.04c0.36,0.03,0.62,0.04,0.8,0.04C135.94,71.83,136.56,71.74,136.64,71.57 M95.08,73.18
	c0.35-0.39,0.52-1.03,0.52-1.93c0-0.89-0.21-1.59-0.63-2.09c-0.04-0.05-0.08-0.04-0.12,0.01l-0.65,1c0.46,0.54,0.68,1.22,0.68,2.05
	c-0.82,0.49-1.71,0.74-2.66,0.74c-0.42,0-0.75-0.12-0.99-0.35c-0.23-0.23-0.35-0.55-0.35-0.93c0-0.5,0.19-1.1,0.58-1.82
	c0.03-0.06,0.04-0.1,0.04-0.13c0-0.03-0.02-0.05-0.05-0.05c-0.05,0-0.09,0.03-0.14,0.08c-0.25,0.3-0.45,0.67-0.61,1.11
	c-0.16,0.44-0.24,0.85-0.24,1.22c0,0.58,0.13,1.05,0.39,1.42c0.3,0.44,0.76,0.66,1.36,0.66c0.37,0,0.88-0.1,1.53-0.31
	C94.44,73.63,94.88,73.41,95.08,73.18 M93.38,68.39l0.42-0.9l-1.13-0.39l-0.4,0.89L93.38,68.39z M133.91,73.05l-0.66,0.73l0.84,0.67
	l0.55-0.6l0.74,0.6l0.69-0.74l-0.87-0.66l-0.52,0.59L133.91,73.05z M182.42,65.79l-0.85,0.95c0.01,0.39,0.06,1.04,0.14,1.95
	c0.07,0.84,0.11,1.49,0.12,1.96c0,0.17-0.01,0.49-0.03,0.97c0,0.1,0.01,0.15,0.03,0.15c0.02,0,0.06-0.03,0.12-0.08
	c0.17-0.14,0.34-0.34,0.52-0.6c0.21-0.3,0.32-0.53,0.31-0.68l-0.23-4.54c0-0.09-0.02-0.13-0.04-0.13
	C182.48,65.72,182.46,65.74,182.42,65.79 M181.82,71.77C181.82,71.77,181.82,71.76,181.82,71.77
	C181.82,71.76,181.81,71.77,181.82,71.77L181.82,71.77z M279.69,72.62l-0.51,0.73l1.07,0.55l0.39-0.56l1.01,0.52l0.52-0.72
	l-1.15-0.57l-0.4,0.55L279.69,72.62z M280.82,73.76l-0.48,0.74l1.01,0.53l0.5-0.7L280.82,73.76z"/>
<path class="st4" d="M282.62,31.08l-1.39-21.64c-0.02-0.52-0.1-0.62-0.12-0.63c0,0.01-0.1,0.04-0.37,0.34l-5.05,5.42
	c0.03,0.78,0.19,3.09,0.39,6c0.45,6.59,1.06,15.62,0.97,17.5c-0.02,0.43,0.01,0.62,0.03,0.7c0.09-0.04,0.26-0.15,0.6-0.44
	c0.98-0.8,2.02-1.95,3.1-3.42C282.04,33.19,282.66,31.9,282.62,31.08 M271.58,44.77c-0.1-7.48-0.25-12.67-0.44-15.42l-1.36-19.59
	c-0.04-0.68-0.12-0.88-0.15-0.94c-0.07,0.03-0.27,0.15-0.8,0.59l-4.81,4.08l2.51,30.37c0.13,1.3-4.14,4.31-11.01,4.31
	c-2.41,0-4.39-0.62-5.91-1.85c-1.59-1.27-2.4-3.02-2.4-5.2c0-2.11,0.35-4.26,1.05-6.37c0.18-0.55,0.28-1.01,0.28-1.36
	c0-0.18-0.03-0.28-0.07-0.28c-0.11,0-0.47,0.15-1.26,1.53c-2.04,3.56-3.08,7.34-3.08,11.24c0,2.81,1.04,5.1,3.1,6.81
	c2.01,1.67,4.61,2.52,7.74,2.52c4.99,0,9.25-1.49,12.64-4.42C270.27,48.5,271.6,46.47,271.58,44.77 M235.3,31.8
	c0.02-0.37,0.03-0.8,0.03-1.28c0-4.65-0.55-7.96-1.64-9.83l-4.58,4.82c1.15,1.93,1.77,3.9,1.86,5.83l0,0.08l-0.06,0.05
	c-0.58,0.45-1.67,0.66-3.32,0.66c-2.86,0-5.15-0.57-6.79-1.69l-0.11-0.07l0.06-0.12c1.02-2.13,1.53-4.2,1.53-6.14
	c0-0.89-0.13-1.67-0.37-2.31l-4.88,4.89c0.31,0.68,0.47,1.37,0.47,2.04c0,0.73-0.2,1.48-0.59,2.2l-0.03,0.05L216.82,31
	c-0.65,0.21-2.96,0.28-4.74,0.28c-1.78,0-4.12-0.07-4.86-0.28l-0.17-0.05l0.07-0.16c1-2.35,1.5-4.51,1.5-6.42
	c0-1-0.14-1.97-0.42-2.88l-4.68,4.85c0.3,0.9,0.45,1.76,0.45,2.55c0,0.65-0.1,1.27-0.29,1.84l-0.02,0.06l-0.05,0.03
	c-0.89,0.5-2.8,0.74-5.83,0.74c0,0-1.78-0.01-4.21-0.01c-4.51,0-12.28,0.03-13.59,0.22c-2.42,0.36-4.61,1.09-5.58,1.86
	c-0.84,0.65-1.78,2.14-2.8,4.43c-0.94,2.08-1.41,3.44-1.41,4.05c0,0.48,0.63,1.28,3.63,2.42c2.89,1.06,4.89,1.78,6,2.19l0.35,0.13
	L179.83,47c-2.22,1.02-6.08,1.54-11.47,1.54c-2.93,0-5.53-0.43-7.7-1.28c-2.96-1.15-4.46-2.94-4.46-5.33c0-2.34,1.19-5.18,3.54-8.44
	c0.24-0.33,0.29-0.51,0.29-0.6c0-0.06,0-0.1-0.13-0.1c-0.23,0-0.5,0.17-0.8,0.5c-3.54,3.78-5.33,7.89-5.33,12.19
	c0,3.1,1.07,5.54,3.17,7.26c2.03,1.64,4.81,2.47,8.28,2.47c3.38,0,6.95-0.51,10.61-1.52c4.39-1.21,7.41-2.83,8.96-4.8
	c0.26-0.34,0.53-1.22,0.82-2.61c0.27-1.29,0.41-2.24,0.41-2.84c-0.03-0.23-1.07-1.1-10.13-4.25l-0.39-0.14l0.38-0.15
	c1-0.41,2.46-0.62,4.32-0.62c0.73,0,13.44,0.36,13.98,0.37h2.15c2.95,0,5.3-0.5,6.97-1.47l0.07-0.04l0.08,0.04
	c1.21,0.63,5.3,1.01,8.55,1.01c1.39,0,2.41-0.07,2.81-0.2c1.11-0.36,2.2-0.99,3.23-1.89l0.08-0.07l0.09,0.05
	c1.19,0.62,2.89,1.21,5.05,1.74c2.44,0.59,4.73,0.89,6.82,0.89c3.17,0,4.88-0.52,4.93-1.49L235.3,31.8z M147.74,31.52
	c0-0.68-0.68-2.66-2.01-5.86c-0.94-2.26-1.52-3.59-1.73-3.95c-0.87-1.51-1.86-2.28-2.93-2.28c-2.42,0-4.65,1.41-6.64,4.19
	c-0.31,0.43-1.37,2.39-3.15,5.82c-0.61,1.17-1.67,1.85-3.15,2.03h-8.12c-0.61-2.3-1.57-4.27-2.89-5.86
	c-0.05-0.07-0.13-0.14-0.2-0.14c-0.07,0-0.16,0.08-0.25,0.21l-3.82,5.85c2.68,3.24,4.04,7.35,4.04,12.22v0.09l-0.08,0.05
	c-4.91,2.93-10.27,4.42-15.94,4.42c-2.56,0-4.58-0.72-6-2.14c-1.43-1.42-2.15-3.33-2.15-5.68c0-2.96,1.17-6.65,3.46-10.96
	c0.2-0.37,0.24-0.57,0.24-0.67c0-0.12-0.04-0.16-0.16-0.16c-0.22,0-0.46,0.15-0.7,0.43c-1.46,1.78-2.68,3.99-3.64,6.59
	c-0.96,2.59-1.44,5.03-1.44,7.24c0,3.4,0.77,6.22,2.28,8.39c1.77,2.57,4.46,3.87,7.99,3.87c2.21,0,5.25-0.63,9.05-1.86
	c4.08-1.33,6.61-2.68,7.93-3.98c2.38-2.35,2.99-7.11,3.08-10.8h3.04c1.99,0,3.33-0.17,3.99-0.49c0.65-0.32,1.45-1.25,2.36-2.74
	l0.1-0.16l0.14,0.13c1.04,1,1.93,1.69,2.65,2.04c1.63,0.81,4.24,1.22,7.74,1.22c1.78,0,3.04-0.16,3.73-0.47
	C146.67,37.14,147.74,34.92,147.74,31.52 M143.35,32.2l-0.2-0.01c-5.55-0.37-8.57-1.21-9.23-2.56l-0.04-0.08l0.05-0.08
	c0.85-1.19,1.56-2.02,2.12-2.45c0.74-0.57,1.65-0.87,2.72-0.87c2.22,0,3.75,1.97,4.54,5.84L143.35,32.2z M107.61,26.78l2.23-5.04
	l-6.33-2.27l-2.27,5L107.61,26.78z"/>
</svg>
