<svg xmlns="http://www.w3.org/2000/svg" xmlns:xlink="http://www.w3.org/1999/xlink" id="Layer_1" x="0px" y="0px" viewBox="0 0 979.8 626.9" style="enable-background:new 0 0 979.8 626.9;" xml:space="preserve">
<style type="text/css">
	.st0{fill:#ED3237;}
</style>
    <path class="st0" d="M955.7,414.2c-0.2,0.7-0.5,1.4-0.5,2.1c-0.8,9.2-8.2,17.3-17.4,18.9c-1.3,0.2-2.7,0.4-4,0.5  c-7.8,0-15.5,0-23.3,0c-0.5,0-0.9-0.1-1.7-0.1c-0.5-4-0.3-7.9-0.2-12.1c1.1-0.1,2-0.2,2.9-0.2c6.9,0,13.8,0,20.6,0  c1.4,0,2.9-0.1,4.3-0.5c3.8-1.3,6-4.1,6.5-8.1c0.1-0.9,0.1-1.8,0.1-2.6c0-31.7,0.1-63.4,0-95c-0.1-25.7-8.7-48.4-25.4-67.9  c-15-17.6-33.9-29-56.4-34.3c-7.2-1.7-14.5-2.6-21.9-2.7c-1.7,0-3.4,0-5,0c-120.2,0-240.5,0-360.7,0c-1.1,0-2.2,0-3.2,0  c-0.6-4.2-1.2-8.1-1.8-12.2c0.3-0.1,0.8-0.2,1.3-0.3c0.6-0.1,1.3,0,1.9,0c121.3,0,242.5,0,363.8,0c18.9,0,36.9,3.6,53.7,12.2  c34.7,17.9,56.2,46.1,64.1,84.4c1.1,5.2,1.7,10.4,1.6,15.7c0,1.5,0.3,3,0.5,4.5C955.7,349,955.7,381.6,955.7,414.2z"></path>
    <path class="st0" d="M523.8,286.5c0-12,0-23.6,0-35.5c0.8-0.1,1.6-0.2,2.4-0.2c33.1,0,66.2,0,99.4,0c1.5,0,2.3,0.5,2.9,1.9  c3.7,8,7.5,15.9,11.2,23.9c2,4.3,3.4,8.8,4.1,13.5c0.1,0.5,0.3,1,0.6,1.9c0.6-1,1.1-1.6,1.5-2.3c2.3-3.9,4.5-7.7,6.7-11.6  c1.8-3.2,4.1-5.9,6.9-8.2c6.8-5.5,14.3-9.6,22.9-11.5c0.7-0.2,1.3-0.4,2.4-0.7c-0.9-0.8-1.6-1.4-2.2-2.1c-1.5-1.8-3.1-3.6-4.5-5.5  c-0.7-0.9-0.6-1.9,0-2.9c5.5-9.5,11-19,16.5-28.4c0.1-0.2,0.3-0.4,0.5-0.7c3.1,6,8.3,9.7,13.6,13.1c11,7.2,22.1,14.1,33.2,21  c9.4,5.8,18.7,11.7,27.4,18.5c4.2,3.3,8.4,6.7,11.6,11.1c1.3,1.7,2.4,3.6,3.3,5.5c1.2,2.9,1.1,5.7-0.6,8.5c-2.2,3.6-4.3,7.3-6.4,11  c-0.4,0.7-0.7,1.4-1,2.1c2.3,0.7,17,0.7,19.1,0c-0.3-2.3-0.6-4.7-0.8-7.1c-1.1-18.6,5.7-33.4,20.9-44.2c6.1-4.3,13.1-6.4,20.5-6.5  c13.4-0.1,26.7-0.1,40.1,0c10,0.1,18.7,3.9,26,10.7c7.5,7,12.8,15.4,14.6,25.6c3.6,20.3-2,37.3-18.7,50.1  c-6.3,4.9-13.7,7.2-21.7,7.4c-1.7,0-3.4,0-5,0c-57.7,0-115.4,0-173,0c-2.6,0-4.8,0.5-7.1,1.8c-12.2,6.9-25.2,12.1-38.4,16.8  c-1.3,0.5-2.6,0.9-3.8,1.3c-1.7,0.5-3.4,0.8-4.2,2.7c-0.1-0.1-0.3-0.2-0.4-0.3c0.3-0.8,0.5-1.6,0.9-2.3c5.6-9.8,11.3-19.5,16.9-29.3  c0.2-0.3,0.3-0.5,0.5-0.9c-7.8-4.5-15.5-8.9-23.4-13.4c-0.6,0.9-1.2,2-1.8,3c-3.8,6.1-8.5,11.2-14.6,15c-5.8,3.7-12.2,5.6-19.1,5.6  c-25.8,0-51.5,0-77.3,0c-0.7,0-1.4-0.1-2.4-0.2c-0.1-0.8-0.3-1.6-0.3-2.4c0-10.2,0-20.5,0-30.7c0-0.7,0.1-1.4,0.2-2.3  c1.2-0.1,2.3-0.2,3.4-0.2c23.4,0,46.9,0,70.3,0c0.6,0,1.3,0,1.9,0c7.2,0.4,9.8-4.4,10.7-9.4c0.8-4.5-0.7-8.5-3.1-12.3  c-0.3-0.4-1-0.7-1.6-0.9c-0.7-0.2-1.4-0.1-2.2-0.1c-25.4,0-50.7,0-76.1,0C526.2,286.5,525.1,286.5,523.8,286.5z M853.3,309.1  c6.3,0,12.6,0,18.9,0c2,0,4-0.3,5.8-1.3c4.4-2.5,6.5-7.9,5.2-13c-1.2-4.9-5.3-8.2-10.5-8.2c-11.4-0.1-22.8,0-34.3,0  c-6.5,0-9.3,4.2-10,8.7c-0.6,3.8,0,7.4,1.7,10.9c1,2.2,2.2,3.1,4.7,3C841,309,847.1,309.1,853.3,309.1z M658.8,290.6  c0,0.2-0.1,0.4-0.1,0.7c1,0.7,1.9,1.4,3,1.9c4.3,2.5,8.5,5,12.9,7.4c2.7,1.4,5.4,2.8,8.2,3.8c10.9,4.2,22.3,5.6,33.9,5.8  c1,0,2.1-0.7,3-1.1c1.1-0.5,1.3-1.5,0.7-2.4c-1.3-2.1-2.4-4.3-4-6.2c-3.3-3.9-7.7-6.5-12.4-8.4c-13-5.3-26.4-6.1-40-3  C662.2,289.6,660.5,290.1,658.8,290.6z M726.1,310c5.5,0.8,28.1-1.8,31.3-3.6c-6.3-5.8-13.2-10.5-20.4-15.3  C733.3,297.5,729.8,303.6,726.1,310z"></path>
    <path class="st0" d="M85.1,255.5c11.9,0,23.5,0,35.4,0c0.1,1.3,0.2,2.4,0.2,3.6c0,34.4,0,68.8,0,103.2c0,1,0,2.1,0,3.1  c-0.1,6.7,2.9,11.8,8.8,14.9c7.4,3.9,15,3.9,22.3-0.2c5.7-3.2,8.4-8.2,8.4-14.8c-0.1-30.2,0-60.5,0-90.7c0-5.4,0-10.7,0-16.1  c0-0.9,0-1.7,0-2.5c2-0.6,32.2-0.8,35.7-0.2c0,0.9,0.1,1.9,0.1,3c0,30.9,0,61.7,0,92.6c0,4.8,0,9.6,0,14.4  c0.2,14.9-5.7,27-16.6,36.8c-8.7,7.8-18.9,12.6-30.5,13.9c-15.7,1.8-30.3-0.9-43.1-10.6c-9.4-7.1-16.3-16-19.3-27.6  c-1-4.1-1.5-8.2-1.5-12.4c0-35.8,0-71.7,0-107.5C84.9,257.4,85,256.5,85.1,255.5z"></path>
    <path class="st0" d="M363.1,344.6c0-11.9,0-23.5,0-35.5c7.5,0,14.9,0,22.6,0c-0.2-1.4-0.2-2.4-0.4-3.3c-1.8-12.8,0.2-24.9,7.7-35.7  c6.2-9,14.3-15.7,25.3-18.2c2.7-0.6,5.5-1,8.3-1c13.1-0.1,26.2-0.1,39.4,0c10.1,0.1,18.9,3.8,26.3,10.6c8.5,7.9,13.9,17.5,15.3,29.1  c2.3,19.3-3.9,35.3-19.7,47.1c-6.4,4.8-13.8,7.1-21.8,7.1c-15.4,0.1-30.9,0-46.3,0c-17.8,0-35.5,0-53.3,0  C365.4,344.8,364.3,344.7,363.1,344.6z M443.8,309.1c6.3,0,12.6,0,18.9,0c2,0,4-0.3,5.8-1.3c4.4-2.5,6.6-7.9,5.2-13.1  c-1.2-4.5-5-8.2-10.5-8.2c-11.4,0-22.8,0-34.3,0c-5.6,0-9.1,3.1-10,8.7c-0.7,4,0.1,7.7,1.9,11.4c0.9,1.8,1.9,2.6,4,2.5  C431.2,309,437.5,309.1,443.8,309.1z"></path>
    <path class="st0" d="M277.8,253.2c11.9,0,23.5,0,35.2,0c0.6,1.7,0.8,99.4,0.2,103.9c-0.6,0.3-1.3,0.7-2,1.1  c-6.6,3.2-13.2,6.4-19.8,9.7c-10.2,5-20.9,7-32.1,5.5c-6.9-0.9-13.4-3.1-19.3-6.8c-1.5-0.9-2.6-1-4.2-0.2  c-6.5,3.1-13.3,5.6-20.4,6.9c-5.8,1.1-11.6,0.8-17.3-0.3c-0.5-2-0.6-35.2-0.2-37.6c0.1,0,0.4,0,0.4,0.1c3.3,4.8,10.8,5.6,15.9,3.5  c1.3-0.5,2.6-1.3,3.9-1.9c1-0.5,1.4-1.2,1.3-2.3c-0.1-0.6,0-1.3,0-1.9c0-25.4,0-50.7,0-76.1c0-1,0-2.1,0-3.1  c1.8-0.5,32.4-0.7,35.8-0.2c0,0.9,0,1.8,0,2.7c0,24.2,0,48.3,0,72.5c0,7.7,4.9,12.1,12.7,11.3c3.3-0.3,6-2,8.9-3.4  c0.4-0.2,0.7-0.8,0.8-1.3c0.1-0.7,0.1-1.4,0.1-2.2c0-25.5,0-51,0-76.5C277.7,255.3,277.8,254.3,277.8,253.2z"></path>
    <path class="st0" d="M146.7,199.7c-0.6,4.2-1.2,8.1-1.8,12.2c-0.8,0-1.8,0.1-2.8,0.1c-30.6,0-61.1,0-91.7,0c-1,0-1.9,0-2.9,0  c-5.2,0.2-9.1,4.2-9.2,9.4c0,0.5,0,1,0,1.4c0,31.8-0.1,63.5,0,95.3c0.1,21.3,6.1,40.9,18.1,58.4c15.8,23.1,37.5,37.8,64.8,44.2  c8.1,1.9,16.3,2.5,24.5,2.5c67.4,0,134.9,0,202.3,0c5.2,0,10.4,0,15.6,0c0.9,0,1.7,0.1,2.8,0.1c0,4.1,0,8.1,0,12.2  c-0.8,0-1.6,0.1-2.4,0.1c-73.6,0-147.2,0.2-220.8-0.1c-32.1-0.1-59.7-12-82.6-34.5c-17-16.8-27.7-37-32.6-60.3  c-1.6-7.6-2.3-15.3-2.3-23.1c0-31.5,0-63,0-94.6c0-4.7,0.7-9.1,3.3-13.1c4.4-6.7,10.6-10.3,18.6-10.5c0.7,0,1.4,0,2.2,0  c31.1,0,62.2,0,93.4,0C144.4,199.5,145.5,199.6,146.7,199.7z"></path>
    <path class="st0" d="M427.4,51.4c-2,3.9-5.1,6-8.3,8.2c-0.6-1.8-1-3.3-1.6-4.8c-1.2-3.1-3.3-5.4-6.7-5.9c-1.9-0.3-3.9-0.2-5.7,0.2  c-2.4,0.6-4.7,1.4-7,2.5c-3.2,1.5-6.3,3.2-9.3,4.9c-0.6,0.3-1.2,0.8-1.7,1.3C382,62.7,377,67.6,372,72.5c-4.4,4.4-8.4,9.2-11.8,14.4  c-5.2,8-8.1,16.8-9.7,26.1c-0.1,0.5-0.2,1.2,0,1.7c0.4,1.2,0.8,2.4,1.3,3.6c0.3,0.6,0.6,1.3,1.1,2.4c0.8-4.2,1.4-8,2.3-11.6  c1-3.6,2.2-7.2,3.7-10.6c1.5-3.5,3.3-6.9,5.2-10.6c1,1.6,1.8,2.7,2.8,4.2c1.2-3.3,3.3-5.5,5.7-7.8c0.3,1.9,0.6,3.5,0.9,5.1  c2-4.5,6.5-5.8,10.1-9c-0.1,1.4-0.1,2.3-0.3,3.1c-0.6,2.6-1.8,5-3.5,7c-2.3,2.8-4.8,5.5-7.3,8.2c-1.4,1.5-3,2.9-4.5,4.4  c-7.2,6.9-10.8,15.5-12,25.2c-0.1,0.5-0.2,1.1,0,1.7c1.2,4,2.5,7.9,4.1,11.7c-0.2-1.2-0.4-2.3-0.6-3.5c-0.4-2.4-0.9-4.7-1.2-7.1  c-0.7-5.1,0.3-9.9,2.5-14.5c5.5-11.4,13.7-20.1,24.9-26.1c3-1.6,6.3-2.7,10.1-3c-1.2,2.2-2.3,4.2-3.6,6.6c5.5-1.5,10.4-3.4,16.1-2.9  c-1.2,1.6-2.2,2.9-3.3,4.2c0.1,0.1,0.2,0.3,0.2,0.4c4.5-0.8,9.1-1.5,13.7-2.3c1.7,4.2-0.2,9.4-4.5,11.4c-2.5,1.1-5.2,1.8-7.8,2.6  c-1.2,0.3-2.4,0-3.7-0.4c-3.1-1.2-6.4-1.2-9.7-0.6c-0.3,0.1-0.6,0.2-1,0.2c0.2,0.2,0.3,0.5,0.5,0.7c0.6,0,1.2,0.1,1.8,0.1  c1.7,0,3.4-0.1,5,0.1c1.1,0.1,2.3,0.6,3.3,1.2c1.3,0.9,1.1,2.1-0.4,2.8c-1.4,0.7-2.9,0.7-4.4,0.2c-4-1.4-8.2-1.4-12.3-0.5  c-4.5,1-8.6,2.9-11.5,6.4c-2.6,3-4.8,6.4-7.1,9.6c-0.4,0.5-0.7,1.2-0.7,1.8c-0.3,3.5-0.6,7-0.8,10.5c0,0.3,0.3,0.7,0.9,1  c0.2-0.5,0.4-1.1,0.5-1.6c0.1-2,0.1-4,0.2-6c0-2.3,0.6-4.4,1.9-6.3c1.5-2.1,2.9-4.5,4.6-6.5c5.8-6.8,13.2-9.1,21.9-7.9  c0.8,0.1,1.6,0.4,2.2,0.9c2.8,2.1,2.9,5,0.1,6.9c-3.4,2.4-7.2,3.3-11.3,1.6c-3-1.2-5.8-0.6-8.5,1c-0.2,0.1-0.3,0.5-0.8,1.2  c3.2-0.6,5.9-2.6,8.7-0.9c0.5,1.2-0.1,2.1-0.7,3c-1.1,1.6-2.3,3.1-3.3,4.7c-1,1.5-2,3.1-2.8,4.7c-2.1,4.4-2.1,8.9,0.5,13.1  c1.6,2.5,3.4,4.9,5.5,6.9c6,5.8,13.2,9.6,21.3,11.3c6.8,1.4,13.7,1.1,20.4-0.8c4.6-1.3,8.1-4.2,10.3-8.4c2.9-5.5,1.8-10.8-3-14.8  c-0.4-0.3-0.7-0.6-1.1-1c3.6-1.2,7.5,0.1,9.9,3.2c1.4,1.9,2.2,4.1,2.5,6.4c0.6,4.9,0,9.7-2.4,14.2c-3.3,6-8.4,9.3-15,10.3  c-6.3,0.9-12.5,1.7-18.9,1.4c-8.9-0.3-17.5-1.9-25.5-5.8c-9.1-4.3-16-10.8-19.8-20.3c-0.6-1.6-1.5-3.2-2.5-4.7  c0.1,0.8,0.2,1.7,0.3,2.7c-5.4-5.5-10.1-11.4-13.3-18.2c-3.3-6.8-6.4-13.8-9.5-20.7c-2.8-6.2-5.7-12.3-9.4-18  c-6-9.1-13.8-15.9-24-19.8c-4.7-1.8-9.5-2.8-14.6-1.7c-6,1.3-10.4,4.8-13.1,10.2c-0.3,0.6-0.6,1.3-0.7,2c-1.1,4.1,0.8,7.4,4.9,8.5  c1.4,0.4,2.8,0.5,4.2,0.8c2.5,5.2,0,10.5-5.6,11.7c-5.2,1.1-9.9-0.3-13.8-3.8c-6.9-6.2-8.5-15.1-4.3-23.4  c4.2-8.3,11.1-13.7,19.6-17.2c9.4-3.9,19-3.2,28.4,0.2c14,5.1,23.6,14.9,29.7,28.3c2,4.3,3.6,8.7,5.3,13.1c0.3,0.8,0.7,1.5,1.3,2.8  c0.4-1.2,0.6-1.9,0.8-2.5c1.8-6,3.4-12.1,5.5-18.1c3.7-10.7,10.1-19.8,18-27.8c4.6-4.7,9.6-8.9,14.6-13.2c1.4-1.2,3.2-2.1,5-2.7  c10.8-3.7,21.9-5.2,33.3-2.7c5.4,1.2,10.4,3.6,15.1,6.5c3.7,2.3,7.2,4.7,10.9,7c2.7,1.6,5.4,3,8.2,4.4c1.1,0.5,2.5,0.7,3.7,0.8  c2.5,0.2,3.8-0.8,4.8-3.2c0.2-0.4,0.3-0.8,0.6-1.4c2.9,5.5-0.3,11.6-6.5,12.5c-3.7,0.6-7-0.3-9.8-2.8c-2-1.8-3.7-3.8-5.6-5.6  c-1.7-1.7-3.4-3.4-5.4-4.8c-2.2-1.6-4.8-2.3-8-2.2c0.6,1,0.9,1.7,1.3,2.3c1.9,3.1,3.1,6.4,3.6,10.1c0.9,6.4-4,11.4-10.4,10.6  c-2.4-0.3-4.2-1.4-5.1-3.8c-0.7-2-0.4-3.8,1-5.3c1.1-1.1,2.3-2.2,3.4-3.3C427.6,56.7,428.2,54.7,427.4,51.4z M398,100.5  c0-0.2,0-0.4,0-0.6c-0.5-0.1-1-0.4-1.4-0.4c-1.5,0.1-3,0.2-4.5,0.4c-10,1.9-18,7.1-24.7,14.5c-1.6,1.7-2.8,3.9-3.8,6.1  c-0.8,1.9-0.9,4-1.3,6c-0.1,0.3,0.3,0.8,0.4,1.1c0.6-0.5,0.8-1,0.8-1.4c0.3-3.9,1.7-7.4,4.2-10.2c7.5-8.6,16.6-14.3,28.3-15.1  C396.7,100.8,397.4,100.6,398,100.5z"></path>
    <path class="st0" d="M708.4,92.4c1.3-0.2,2.5-0.4,3.7-0.6c4.8-1.1,7-4.7,5.2-9.4c-2.4-6.2-7-10-13.4-11.5c-4.6-1.1-9.1-0.3-13.4,1.2  c-9.7,3.3-17.4,9.3-23.4,17.5c-4.7,6.4-8.1,13.6-11.4,20.8c-3,6.7-6,13.4-9.2,20.1c-2.8,5.9-6.5,11.2-11,15.9  c-0.4,0.5-0.8,1-1.2,1.5c-0.4,0.5-0.8,0.9-1.5,1.7c0.2-1.2,0.3-1.9,0.4-2.7c-0.1,0-0.2-0.1-0.3-0.1c-0.8,1.6-1.7,3.2-2.4,4.8  c-3.3,8.2-9.1,14.2-16.8,18.4c-6.7,3.8-14,5.7-21.6,6.7c-9.1,1.2-18.2,0.5-27.2-1.3c-9.4-1.9-15.8-9.9-16.1-19.5  c-0.1-3.1,0.2-6.1,1.5-8.9c1.8-3.9,4.8-5.8,9.1-5.9c0.6,0,1.2,0.2,2.2,0.3c-0.7,0.6-1.2,1-1.6,1.4c-4.2,3.5-5.4,8.4-3.1,13.4  c2.2,4.9,5.9,8.3,11.1,9.6c17,4.2,31.6-0.2,43.7-12.8c1.3-1.4,2.4-3,3.3-4.7c2.6-4.4,2.7-9,0.3-13.5c-1.5-2.7-3.4-5.2-5.2-7.8  c-1.3-1.9-1.4-2.1-1.6-4c2.9-2,5.7,0.2,9,0.8c-0.6-0.8-0.8-1.2-1.1-1.4c-2.6-1.4-5.4-2-8.3-0.8c-3.9,1.7-7.5,0.8-10.9-1.3  c-1.5-0.9-2.8-2.3-2.3-4.3c0.5-2,1.9-3.3,3.9-3.8c2.7-0.6,5.4-0.6,8.1-0.1c6.1,1.1,11.2,3.8,14.8,8.9c1.5,2.1,2.9,4.2,4.3,6.3  c1.1,1.6,1.3,3.4,1.4,5.3c0.1,1.9,0.1,3.8,0.2,5.8c0,0.7,0.2,1.3,0.4,2.6c0.5-0.9,0.9-1.2,0.9-1.6c-0.1-3.2-0.3-6.4-0.6-9.6  c-0.1-0.9-0.5-1.9-1-2.7c-2.1-3.7-4.5-7.2-7.6-10.1c-6.6-6.1-14.3-7.8-22.9-5.5c-1.5,0.4-3,0.7-4.4,0c-0.6-0.3-1.5-0.9-1.4-1.3  c0-0.6,0.6-1.5,1.2-1.9c0.9-0.5,2.1-0.8,3.2-0.9c1.5-0.2,3-0.1,4.6-0.1c0.6,0,1.2,0,1.8,0c0.1-0.2,0.1-0.3,0.2-0.5  c-0.4-0.2-0.7-0.6-1.1-0.7c-3.3-0.3-6.6-0.3-9.9,1c-1.4,0.6-3.3,0.1-4.9-0.2c-1.1-0.2-2.2-0.9-3.3-1.2c-5.9-1.5-8.8-6.5-7.1-12.3  c4.5,0.8,9.1,1.5,13.9,2.3c-0.7-2-2.3-2.9-3.1-4.6c5.5-0.6,10.4,1.3,15.9,2.8c-1.3-2.5-2.4-4.4-3.5-6.6c3.4,0.3,6.3,1.2,9.1,2.6  c7.3,3.5,13.3,8.6,18.3,14.8c2.4,3,4.5,6.2,6.4,9.5c3.9,6.7,4.5,13.9,2.9,21.4c-0.4,1.9-0.7,3.9-0.8,5.9c0.2-0.6,0.5-1.1,0.7-1.7  c0.7-2.1,1.1-4.2,2-6.2c1.6-3.5,1.3-7,0.4-10.5c-1.9-7.9-5.3-14.8-11.3-20.5c-2.9-2.7-5.8-5.5-8.4-8.5c-2-2.3-3.7-4.8-5.3-7.4  c-1.1-1.8-1.8-3.9-1.6-6.7c3.5,3,7.8,4.3,10.2,8.6c0.2-1.4,0.4-2.9,0.7-4.8c2.3,2.5,4.5,4.4,5.5,7.6c1.6-0.7,1.7-2.3,2.9-3.5  c6.1,9.9,9.8,20.5,11.4,31.9c1.2-2.7,2.7-5.1,2.2-8.4c-2.4-14.4-9.1-26.5-19.1-36.9c-4.7-4.9-9.8-9.5-14.5-14.3  c-5.8-5.8-12.9-8.9-20.5-11.4c-0.5-0.2-1.1-0.3-1.6-0.4c-6.1-0.8-9.8,1.5-11.7,7.4c-0.3,1-0.6,2-0.8,3c-2.4-0.7-3.9-1.9-8.7-7.5  c-0.5,1.4-0.5,2.7,0,3.8c0.7,1.4,1.6,2.7,2.6,4c0.8,1,1.8,1.8,2.8,2.7c3.1,2.9,1.1,7.6-2.1,8.8c-6.4,2.4-13.1-3-12.3-10  c0.5-3.7,1.7-7.1,3.7-10.3c0.4-0.6,0.8-1.3,1.3-2.2c-3.1-0.2-5.6,0.5-7.8,2c-1.9,1.3-3.6,3-5.2,4.6c-2,1.9-3.7,4-5.7,5.8  c-2.8,2.6-6.2,3.5-10,2.9c-6.1-0.9-9.4-7-6.6-12.5c0.2,0.4,0.4,0.8,0.5,1.1c1.1,2.7,2.5,3.7,5.3,3.4c1.6-0.2,3.2-0.6,4.6-1.3  c2.4-1.2,4.8-2.6,7.1-4c4.4-2.7,8.7-5.6,13.2-8.3c9.5-5.6,19.8-7.3,30.7-5.8c5.6,0.7,11.1,1.6,16.3,3.8c1.2,0.5,2.5,1.1,3.6,1.9  c8.5,6.8,16.3,14.1,22.9,22.8c6.3,8.3,10.2,17.7,13.1,27.6c0.9,3,1.6,6,2.4,9c0.2,0.7,0.4,1.3,0.8,2.5c0.6-1.2,1-2,1.3-2.8  c1.5-3.6,2.9-7.3,4.4-10.9c4.9-11.8,12.6-21.3,23.9-27.5c8.9-4.9,18.5-7,28.5-5.1c11.3,2.2,20.2,8.4,25.9,18.5  c4.7,8.3,3.2,17.4-3.8,23.8c-3.7,3.4-8.2,5-13.3,4.1C708.7,103.1,706.2,98.3,708.4,92.4z M631.2,127.7c0.2,0,0.4,0,0.6-0.1  c0.1-0.6,0.2-1.2,0.2-1.7c-0.2-4.2-1.9-7.7-4.5-10.9c-4.6-5.5-10.3-9.5-16.8-12.5c-3.9-1.8-8-2.8-12.2-3c-0.7,0-1.5,0.1-2.2,0.1  c0,0.2,0,0.4,0,0.6c0.5,0.2,0.9,0.4,1.4,0.5c1.1,0.1,2.2,0.1,3.3,0.3c10.2,1.6,18.4,6.9,25.3,14.5c2.7,3,4.3,6.5,4.6,10.6  C630.8,126.7,631.1,127.2,631.2,127.7z"></path>
    <path class="st0" d="M647.6,523.4c-0.4,1.6-0.7,3.3-1.2,4.9c-1.4,4.7-2.8,9.5-4.4,14.2c-3.5,10.4-9.6,19.3-16.9,27.3  c-4.9,5.4-10.4,10.1-16.1,14.8c-1.2,0.9-2.6,1.6-3.9,2.2c-6.4,2.6-13.1,3.5-19.9,4.1c-7.3,0.7-14.2-0.3-20.9-3.2  c-3.4-1.4-6.6-3.2-9.8-5.1c-3.7-2.2-7.3-4.7-10.9-7c-2.8-1.8-5.6-3.3-8.8-4.2c-3.5-1-6.4,0.3-7.1,3.7c0,0.1-0.2,0.2-0.3,0.3  c-1.9-3-1.4-6.9,1.2-9.5c3.2-3.2,8.7-4,12.9-1.4c2,1.2,3.6,2.8,5.3,4.4c1.7,1.6,3.1,3.4,4.8,5c2.1,2.1,4.6,3.7,7.6,4.3  c1,0.2,2,0.2,3.6,0.3c-0.6-1.1-1-1.7-1.4-2.4c-2.1-3.4-3.5-7-3.7-11c-0.4-6.6,5.5-11.2,11.8-9.4c3.7,1.1,5.8,6.1,2.4,9.2  c-1.1,1-2.3,2-3.3,3.2c-1.8,1.9-2.7,4.1-2,7c1.4-1.5,2.5-3,3.9-4.3c1.4-1.3,3-2.3,4.7-3.7c0.5,1.5,0.8,2.7,1.2,3.9  c1.9,5.5,5.5,7.8,11.2,6.9c2.2-0.3,4.4-0.9,6.4-1.9c4.1-1.9,8-4,12-6.1c0.5-0.3,0.9-0.6,1.3-1c5.2-5.1,10.5-10.1,15.6-15.3  c6-6,11.2-12.7,15-20.4c3-6.2,4.8-12.7,5.9-19.4c0.1-0.9,0-1.9-0.3-2.8c-0.5-1.6-1.2-3-2-4.6c-1.4,11.6-5.2,22.2-11.3,32.3  c-0.9-1.4-1.7-2.6-2.8-4.3c-1,3.6-3.2,5.6-5.6,8.1c-0.3-1.9-0.6-3.4-0.8-4.9c-2.3,4.3-6.7,5.6-10.1,8.6c-0.2-2.4,0.3-4.2,1.2-5.9  c1.5-2.5,3-5,4.8-7.1c2.7-3.1,5.6-6,8.6-8.7c7.7-7.1,11.5-15.9,12.9-26.1c0.1-0.5,0.2-1.2,0-1.7c-1-3.4-2.2-6.8-3.6-10.2  c0,0.5-0.1,1.1,0,1.6c0.4,2.8,0.9,5.5,1.2,8.3c0.5,4.5-0.3,8.8-2.2,12.8c-5.4,11.8-13.9,20.8-25.4,26.9c-3,1.6-6.2,2.6-9.8,2.9  c1.2-2.2,2.2-4.1,3.6-6.6c-5.4,1.4-10.3,3.4-15.7,2.8c0.5-1.7,2.1-2.6,3-4.5c-4.9,0.7-9.5,0.9-13.8,2.5c-1.8-3.9-0.3-9,3.5-11.2  c2.9-1.6,6.2-2.5,9.5-3c0.8-0.1,1.7,0.2,2.5,0.4c3.1,1,6.2,1.3,9.5,0.7c0.4-0.1,0.7-0.4,1.1-1c-0.6-0.1-1.1-0.2-1.7-0.2  c-1.8,0-3.7,0.1-5.5-0.1c-1-0.1-2.2-0.6-3-1.2c-1.1-0.8-0.9-2,0.4-2.6c1.5-0.7,3.1-0.8,4.7-0.2c4.3,1.5,8.6,1.3,13,0.3  c4.9-1.2,9-3.8,12.1-7.7c2-2.5,3.8-5.2,5.5-7.8c0.5-0.8,0.9-1.7,1-2.7c0.3-3.3,0.5-6.5,0.7-9.8c0-0.3-0.2-0.7-0.5-1.5  c-0.4,0.8-0.7,1.1-0.7,1.5c-0.1,2-0.3,4-0.3,6c0,2.6-0.6,5-2.2,7.2c-1.6,2.2-3,4.6-4.8,6.6c-5.8,6.3-13.1,8.6-21.5,7.3  c-0.9-0.1-1.8-0.6-2.5-1.2c-2.3-1.9-2.3-4.5,0-6.3c3.4-2.5,7.1-3.6,11.2-1.9c3,1.2,5.8,0.8,8.5-0.7c0.3-0.2,0.5-0.5,0.9-1  c-1.9-0.5-3,0.9-4.5,1c-1.5,0.1-3,0.5-4.3-0.6c-0.3-1.4,0.5-2.4,1.2-3.3c1.2-1.8,2.6-3.5,3.8-5.3c5-7.3,4.9-13.4-0.8-20.2  c-7.3-8.8-16.8-13.9-28.2-15.2c-5.4-0.6-10.7-0.2-15.9,1.1c-5.6,1.4-9.7,4.9-11.8,10.3c-1.9,4.8-0.7,9.4,3.3,12.8  c0.5,0.4,1,0.8,1.8,1.5c-3.3,0.7-5.9,0.2-8.2-1.5c-1.9-1.4-3-3.3-3.7-5.5c-1.6-5.2-1.3-10.3,0.8-15.2c3.2-7.4,8.9-11.3,16.8-12.2  c7.3-0.9,14.6-1.6,22-1c8.8,0.7,17.2,2.8,24.9,7.2c7.5,4.3,13,10.2,16.3,18.3c0.7,1.7,1.6,3.3,2.6,4.9c-0.1-0.9-0.2-1.7-0.3-2.6  c7.8,7.6,13.2,16.8,17.5,26.7c2.5,5.8,5,11.6,7.7,17.3c2.8,6.2,6.1,12.2,10.4,17.5c6.6,8.1,14.8,13.9,25,16.5  c3.6,0.9,7.3,1.2,10.9,0.3c5.4-1.4,9.5-4.5,12.2-9.4c0.6-1.1,1-2.4,1.2-3.6c0.6-3.8-1-6.3-4.7-7.5c-1.4-0.4-3-0.6-4.4-0.9  c-2.6-5.1,0.1-10.8,5.7-11.8c5.3-0.9,10,0.4,13.9,4.1c6.6,6.3,8.1,14.9,4,23c-4,7.8-10.4,13.1-18.2,16.7c-9.5,4.4-19.2,3.9-28.8,0.7  c-14.2-4.8-24-14.6-30.3-28c-2.1-4.6-3.8-9.3-5.7-14c-0.3-0.7-0.6-1.4-1-2.1C647.9,523.4,647.8,523.4,647.6,523.4z M631.8,499.1  c-0.6,0.3-0.8,0.3-0.8,0.3c-0.2,0.9-0.3,1.9-0.5,2.8c-0.8,4.8-3.3,8.7-6.8,11.9c-7.3,6.7-15.5,11.6-25.7,12.1  c-0.6,0-1.2,0.3-1.8,0.5c0,0.2,0.1,0.4,0.1,0.7c0.7,0.1,1.5,0.2,2.2,0.2c12.3-1.1,21.8-7.1,29.6-16.4c2.3-2.8,3.7-6.2,3.9-9.9  C632,500.5,631.9,499.9,631.8,499.1z"></path>
    <path class="st0" d="M272.6,404.3c6.8-9.5,13.5-18.8,20.3-28.2c0.8,0.3,1.4,0.6,2,0.9c3.3,1.7,6.7,3.4,10,5.2  c6.4,3.3,12.6,3,18.7-0.8c0.8-0.5,1.2-1,1.1-1.9c0-0.8,0-1.6,0-2.4c0-40.2,0-80.5,0-120.7c0-1,0.1-2,0.1-3.2c11.9,0,23.5,0,35.1,0  c0.6,1.9,0.9,141.1,0.3,148.4c-0.5,0.3-1,0.6-1.5,0.9c-8.2,3.9-16.3,7.9-24.5,11.5c-10.6,4.6-21.6,5.7-32.8,3.1  c-2.2-0.5-4.4-1.3-6.6-2.3c-6.9-3.1-13.7-6.2-20.5-9.4C273.8,405.1,273.3,404.8,272.6,404.3z"></path>
    <path class="st0" d="M360.5,483.7c-1.1,3.1-2,6.2-3.3,9.2c-1.5,3.5-1.4,7-0.5,10.5c1.9,7.8,5.3,14.9,11.3,20.5c2.7,2.6,5.4,5.2,8,8  c2.4,2.5,4.7,5.3,6.2,8.5c0.8,1.8,1.6,3.6,1.2,6c-3.4-3-7.8-4.3-10-8.5c-0.2,1.5-0.4,2.9-0.7,4.8c-2.4-2.3-4.5-4.4-5.6-7.8  c-0.6,0.8-1,1.3-1.4,1.8c-0.4,0.6-0.7,1.2-1.3,2.2c-3.3-5-5.6-10.2-7.5-15.6c-1.9-5.3-3.1-10.8-3.9-16.4c-1.8,3.1-2.7,6.1-2,9.8  c2.4,11.9,7.4,22.4,15.4,31.5c3,3.4,6.2,6.7,9.4,9.9c2.6,2.7,5.5,5.1,8.1,7.8c5.4,5.8,12.5,8.8,19.7,11.4c2,0.7,4.4,0.8,6.6,0.8  c3.1-0.1,5.4-1.9,6.8-4.6c0.9-1.8,1.5-3.8,2.3-5.8c2.2,0.6,3.2,1.6,8.5,7.4c0.7-2.7,0-4.8-1.7-6.7c-1.2-1.3-2.5-2.4-3.7-3.7  c-2.5-2.7-1.7-6.9,1.6-8.4c0.9-0.4,2-0.7,3-0.8c5.7-0.4,9.9,3.6,9.8,9.3c-0.1,4.1-1.5,7.8-3.7,11.3c-0.4,0.6-0.8,1.2-1.1,1.8  c0,0.1,0,0.2,0.1,0.6c0.9,0,1.9,0,2.9-0.2c3-0.5,5.5-2.1,7.7-4.2c1.6-1.6,3.1-3.4,4.8-5c1.5-1.5,3.1-3,4.9-4.2  c3.1-2.1,6.6-2.4,10.1-1.1c5.1,1.8,7.1,6.9,4.7,12.1c-0.2-0.6-0.4-1-0.6-1.5c-1-2.5-2.8-3.7-5.5-3.2c-1.7,0.3-3.4,0.8-5,1.6  c-2.4,1.2-4.6,2.5-6.9,3.9c-4,2.5-7.9,5.2-12,7.6c-7.5,4.4-15.6,7.1-24.4,6.8c-8-0.3-15.9-1.2-23.4-4.3c-1.2-0.5-2.5-1.1-3.6-1.9  c-8.4-6.8-16.3-14.1-22.9-22.8c-6.3-8.3-10.2-17.7-13.1-27.6c-0.9-3.1-1.6-6.2-2.5-9.3c-0.2-0.6-0.4-1.2-0.8-2.3  c-0.5,1.1-0.9,1.8-1.2,2.5c-1.6,3.9-3,7.7-4.6,11.6c-5.4,12.8-14,22.6-26.7,28.6c-8.3,3.9-17,5.4-25.9,3.5  c-11.1-2.3-19.8-8.5-25.4-18.4c-4.5-8-3.3-16.2,2.7-22.8c3.1-3.5,7.1-5.1,11.7-5.3c2-0.1,4,0.3,5.8,1.3c3.4,1.9,5,6.5,3.5,10  c-0.2,0.5-0.9,0.9-1.4,1c-1,0.3-2.1,0.2-3.1,0.5c-4.5,1.2-6.4,4.6-4.8,9c2.2,6.2,6.8,9.9,13.1,11.6c4.3,1.1,8.6,0.6,12.8-0.7  c9.6-3,17.4-8.7,23.6-16.6c4.5-5.8,7.9-12.2,10.9-18.9c2.4-5.4,4.7-10.8,7.2-16.2c3.8-8.5,8.2-16.6,14.8-23.4  c0.7-0.7,1.3-1.6,2.2-2.8c-0.2,1.9-0.3,3.3-0.5,4.6C360.8,482.6,360.6,483.2,360.5,483.7z"></path>
    <path class="st0" d="M360.5,483.7c0.1-0.6,0.3-1.2,0.4-1.7c1.6-3.6,3.1-7.4,5-10.9c4-7.5,10.4-12.5,18-16c9.2-4.2,18.9-5.9,28.9-5.5  c5.5,0.2,11,0.7,16.4,1.7c9.4,1.7,15.9,9.5,16.2,19c0.1,3.2-0.1,6.4-1.5,9.4c-1.9,4.2-5.5,6.2-10.1,5.8c-0.3,0-0.6-0.2-1.1-0.3  c0.6-0.6,1.1-1,1.5-1.3c4.2-3.6,5.4-8.6,3.1-13.6c-2.6-5.6-7.2-8.8-13.3-10c-13.9-2.7-26.3,0.4-37.3,9.3c-3.1,2.5-5.8,5.5-7.7,9.1  c-2.3,4.3-2.4,8.6-0.2,12.9c1.1,2.2,2.6,4.2,4,6.3c0.8,1.2,1.7,2.3,2.4,3.6c1.1,2,0.6,2.9-1.6,2.9c-1.5,0-3-0.5-4.4-0.8  c-0.6-0.1-1.3-0.4-2.1-0.2c0.2,0.3,0.3,0.7,0.6,0.9c2.7,1.5,5.6,2.1,8.5,0.9c3.9-1.6,7.5-0.7,10.9,1.4c1.5,0.9,2.7,2.3,2.3,4.2  c-0.4,2-1.8,3.4-3.9,3.8c-8.4,1.5-15.8-0.7-21.6-7c-2.4-2.6-4.3-5.6-6.1-8.6c-0.8-1.3-1-3-1.1-4.6c-0.2-2-0.1-4-0.2-6  c0-0.7-0.2-1.3-0.4-2.1c-1.3,0.6-1,1.5-1,2.2c0.1,2.3,0.1,4.6,0.4,6.9c0.1,1.3,0.4,2.7,1.1,3.9c2.3,4.2,4.9,8.1,8.6,11.2  c6.5,5.5,14,7,22.2,4.7c1.6-0.4,3.1-0.6,4.7,0.1c1.6,0.7,1.7,2,0.3,2.9c-0.8,0.6-1.9,0.9-2.9,1.1c-1.6,0.2-3.2,0.1-4.8,0.1  c-0.8,0-1.5,0-2.9,0c0.7,0.6,0.9,1,1.3,1.1c3.3,0.7,6.5,0.5,9.7-0.7c1.9-0.7,3.6-0.4,5.4,0c1.2,0.3,2.4,0.9,3.6,1.2  c5.7,1.4,8.6,6.8,6.8,12.4c-2.2-0.4-4.5-0.9-6.7-1.3c-2.3-0.4-4.6-0.7-7.4-1.1c1.3,1.7,2.3,3,3.5,4.5c-5.6,0.5-10.5-1.2-15.7-2.9  c0.7,2.6,2.1,4.4,3.3,6.7c-1.6-0.3-2.9-0.4-4.1-0.8c-3.5-0.9-6.7-2.5-9.8-4.5c-8-5.2-14.3-11.9-19.2-20.2  c-4.1-6.9-5.5-14.2-3.9-22.1C359.4,489.2,360,486.5,360.5,483.7z M397.9,527.3c0-0.3,0-0.5,0.1-0.8c-0.7-0.1-1.5-0.3-2.2-0.4  c-1.1-0.1-2.2-0.1-3.3-0.3c-9.6-1.8-17.3-6.8-23.9-13.7c-3-3.2-4.8-6.9-5.1-11.4c0-0.5-0.3-0.9-0.7-1.7c-0.8,1.7-0.5,3.1-0.2,4.3  c0.9,4.1,3,7.6,5.9,10.5c4.8,4.9,10.3,8.6,16.6,11.2c3.5,1.4,7.2,2.2,11,2.4C396.6,527.5,397.3,527.3,397.9,527.3z"></path>
    <path class="st0" d="M804,479.6c-5.2,0.6-8.8-1.3-10.7-5.2c-1.2-2.5-1-4.9,1.1-6.8c1.4-1.3,3-2.4,4.8-3.1c7.3-3,15-3.8,22.8-2.5  c0.9,0.2,1.9,0.4,2.7,0.9c5,2.5,9.5,5.7,12.8,10.2c3.6,5,4.7,10.6,4.1,16.6c-0.7,7.3-2.3,14.5-4,21.7c-1.9,8-6.4,14-13.4,18.2  c-9.4,5.7-19.4,9.8-30.2,11.7c-12.1,2.2-24.2,2-36.2-0.4c-6.9-1.4-13.2-4.2-18.6-8.9c-3.3-2.9-6.7-5.6-10.2-8.4  c4.8,0.9,9.6,1.9,14.4,2.8c1.9,0.3,3.8,0.5,5.7,0.7c5.6,0.6,11.3,1.1,16.9,1.8c6,0.7,11.9,1.6,17.9,1.2c3.5-0.2,7-0.6,10.4-1.5  c8.5-2.4,16-6.8,22.7-12.6c3.2-2.8,5.3-6.2,4.9-10.7c-0.2-2.5-1.1-4.8-2.4-7c-1.6-2.5-3.3-4.9-4.9-7.4c-0.3-0.5-0.7-1.1-1.1-1.8  c0.7-0.2,1.2-0.4,1.7-0.4c2.4,0.1,4.8,0,7.2,0.3c3.9,0.6,6.6,3,8.2,6.7c1.4,3.2,1.9,6.6,2.3,10c0.1,0.5,0.2,1.1,0.3,2.2  c0.5-0.9,0.8-1.3,0.9-1.8c1-7.8,0.5-15.4-3.4-22.3c-4.2-7.5-10.8-11.1-19.2-11.6c-0.5,0-1,0-1.4,0c-0.4,0-0.8,0-1.6,0  c1.2-1.7,2.3-3.1,3.4-4.5c-2.1-1.5-4.3-1-5.7,1.1c-1.4,2.1-1.8,4.6-1.9,7.1C803.9,477.1,804,478.3,804,479.6z"></path>
    <path class="st0" d="M190.2,479.6c0-1.5,0.1-2.8,0-4.1c-0.1-2.3-0.5-4.5-1.8-6.4c-1.4-2.2-3.2-2.7-6-1.5c1.1,1.5,2.2,2.9,3.4,4.5  c-2,0.2-3.7,0.2-5.4,0.4c-9.7,1.4-15.8,7-18.9,16.2c-1.8,5.5-1.8,11.2-1.4,16.9c0,0.7,0.4,1.3,0.6,1.9c0.2,0,0.3,0,0.5,0  c0.2-1.3,0.3-2.6,0.6-3.9c0.6-2.5,1-5,1.9-7.4c1.4-4,4.4-6.4,8.6-7.2c2.8-0.5,5.5-0.3,8.8-0.1c-0.8,1.2-1.4,2.1-2,2.9  c-1.8,2.8-3.7,5.4-5.2,8.3c-1.5,2.8-2.3,5.9-1.2,9c0.5,1.4,1.2,2.8,2,4c0.8,1.2,1.8,2.3,2.9,3.2c8.4,6.8,17.6,12.3,28.7,13.4  c4.4,0.5,9,0.4,13.4,0c6.9-0.6,13.8-1.6,20.7-2.5c0.2,0,0.3-0.1,0.5-0.1c7.4,0.1,14.5-1.9,21.8-3.2c0.7-0.1,1.3-0.2,2.4-0.3  c-4.7,3.8-9,7.5-13.5,10.9c-5,3.7-10.8,5.6-16.8,6.6c-13.6,2.3-27.1,2.2-40.4-1.3c-8.3-2.1-16-5.5-23.4-9.8  c-7.7-4.4-12.7-10.8-14.6-19.6c-1.5-7-3.2-14-3.8-21.2c-0.7-9,2.5-16.1,9.5-21.9c6.5-5.4,13.7-6.9,21.7-5.8  c3.7,0.5,7.5,1.1,10.9,2.6c1.7,0.8,3.4,1.8,4.9,3c2.3,2,2.6,4.7,1.2,7.4C198.9,478.4,195.3,480.2,190.2,479.6z"></path>
    <path class="st0" d="M160.7,119.5c-0.2,0.7-0.4,1.3-0.5,2c-0.7,6-0.4,11.8,1.6,17.5c3.4,9.8,11.5,15.5,21.9,15.6c0.6,0,1.3,0,2.3,0  c-1.3,1.8-2.4,3.2-3.5,4.8c2.9,1.2,4.7,0.7,6.1-1.6c1.1-1.9,1.5-4,1.6-6.2c0.1-1.3,0-2.7,0-4c4.8-1.5,10.7,2.2,11.4,6.9  c0.3,1.9-0.1,3.6-1.6,4.8c-1.5,1.2-3,2.4-4.7,3.2c-7.4,3.1-15.1,3.8-23.1,2.5c-0.8-0.1-1.6-0.3-2.3-0.7c-5.6-2.7-10.6-6.3-14.1-11.6  c-2.7-4.2-3.6-8.9-3.3-13.8c0.6-8.6,2.4-17.1,4.7-25.4c1.9-6.8,6.2-11.8,12.1-15.6c8.8-5.5,18.3-9.5,28.5-11.6  c13.4-2.8,26.8-2.7,40.2,0.2c6.4,1.4,12.2,4.2,17.2,8.6c3.3,2.8,6.6,5.5,10.1,8.4c-3.5-0.7-6.9-1.3-10.2-2c-4.5-1-9-1.4-13.5-1.8  c-4.7-0.3-9.4-1.1-14-1.7c-5.8-0.7-11.6-1.4-17.4-1.2c-5.6,0.2-11,1.2-16,3.7c-4.6,2.3-9.1,5-13.5,7.8c-1.8,1.1-3.4,2.7-4.8,4.3  c-3.6,3.9-4.5,8.4-2.3,13.3c1.2,2.5,2.7,4.9,4.2,7.2c1,1.5,2.1,3,3.4,4.9c-4.7,0.4-8.8,0.8-12.7-1.4c-2.5-1.4-4.1-3.6-4.9-6.3  c-0.9-3.1-1.3-6.2-2-9.4c-0.1-0.5-0.2-0.9-0.2-1.4C161.1,119.5,160.9,119.5,160.7,119.5z"></path>
    <path class="st0" d="M803.8,147.3c0.2,2.4,0.3,4.6,0.7,6.8c0.2,1.2,0.7,2.5,1.3,3.6c1.3,2.4,3.1,2.9,6.1,1.8c-1.1-1.5-2.2-3-3.5-4.7  c0.9,0,1.7-0.1,2.4-0.1c3,0,5.9-0.5,8.7-1.6c6.1-2.4,10.2-6.8,12.6-12.8c2.4-6,2.7-12.3,2.1-18.6c-0.1-0.7-0.4-1.4-0.6-2.2  c-0.2,0-0.3,0-0.5,0.1c-0.2,1.5-0.3,2.9-0.7,4.4c-0.6,2.5-1.1,5-2,7.4c-1.7,4.3-5.1,6.5-9.6,6.9c-2.4,0.2-4.7,0.3-7.5-0.3  c0.8-1.2,1.5-2.1,2.1-3.1c1.6-2.5,3.4-5,4.9-7.7c1.6-2.9,2.3-6.2,1.2-9.5c-0.5-1.3-1.2-2.6-2-3.8c-0.6-0.9-1.4-1.8-2.2-2.5  c-10.2-8.6-21.5-14.8-35.4-14.4c-5.8,0.1-11.6,0.9-17.4,1.4c-5.2,0.5-10.4,0.9-15.5,1.7c-5.6,0.8-11.2,1.9-16.8,2.9  c-1.1,0.2-2.1,0.4-3.2,0.6c4.1-3.4,8.1-6.8,12.2-10.1c5.5-4.4,12-6.6,18.9-7.7c12.5-2,25-2,37.4,0.8c9.4,2.1,18.1,5.8,26.3,10.7  c7.5,4.4,12.3,10.9,14,19.4c1.4,6.8,2.8,13.6,3.7,20.5c1.1,8.4-1.5,15.7-8.2,21.2c-2.4,2-5,3.8-7.7,5.2c-1.8,1-4.1,1.6-6.2,1.8  c-6.8,0.7-13.6,0-20-2.6c-1.8-0.8-3.6-1.9-5-3.1c-2.2-1.9-2.4-4.4-1.2-7C795.1,148.7,798.9,146.8,803.8,147.3z"></path>
    <path class="st0" d="M377.8,381.7c3.2,0,6-0.1,8.8,0.1c0.8,0.1,1.6,0.9,2.1,1.6c4,5.5,7.9,11,11.9,16.6c2.3,3.2,4.6,6.4,6.9,9.6  c0.4,0.6,0.9,1.1,1.5,1.9c0.7-0.8,1.2-1.5,1.7-2.2c6.1-8.5,12.2-17,18.3-25.6c1-1.5,2.1-2.2,3.9-2.1c2.2,0.1,4.4,0,6.8,0  c0.1,1.1,0.3,2,0.3,2.9c0,15.8,0,31.7,0,47.5c0,0.5,0,1-0.1,1.4c-0.1,0.8-0.6,1.3-1.4,1.3c-3,0-5.9,0-8.9,0c-0.9,0-1.3-0.5-1.3-1.4  c0-0.6,0-1.3,0-1.9c0-9,0-18.1,0-27.1c0-0.8,0-1.7,0-3c-6.6,9.4-12.9,18.3-19.4,27.4c-6.5-9.1-12.8-17.9-19.2-26.9  c-0.1,1.1-0.1,2-0.1,2.9c0,8.6,0,17.1,0,25.7c0,0.6,0,1.3,0,1.9c-0.1,2.2-0.2,2.4-2.3,2.4c-2.5,0-5,0-7.4,0c-1.6,0-1.8-0.2-1.9-1.8  c0-0.6,0-1.3,0-1.9c0-15.3,0-30.6,0-45.8C377.8,384.2,377.8,383.2,377.8,381.7z"></path>
    <path class="st0" d="M566.6,434.6c0-17.6,0-35.1,0-52.7c0.7-0.1,1.4-0.3,2-0.3c8,0,16-0.1,24,0.1c5.4,0.1,10.4,1.6,14.9,4.6  c9.6,6.3,12.7,15.4,11.2,26.4c-1.5,10.8-7.7,17.7-18.1,20.6c-2.9,0.8-6,1.3-9,1.4c-7.9,0.2-15.8,0.1-23.8,0.2  C567.6,434.8,567.3,434.7,566.6,434.6z M578.3,425.3c5.6-0.2,10.8-0.1,16.1-0.5c3.6-0.3,6.7-2,9.1-4.8c2.5-2.9,3.5-6.4,3.8-10.1  c0.7-10.3-5.8-17-14.2-17.8c-4.6-0.4-9.2-0.2-13.9-0.2c-0.3,0-0.6,0.2-0.9,0.4C578.3,403.1,578.3,413.9,578.3,425.3z"></path>
    <path class="st0" d="M740.3,381.8c1.1,0,1.8-0.1,2.5-0.1c7.8,0,15.5,0,23.3,0c3.1,0,6.2,0.4,9.2,1.5c6.2,2.3,10.8,6.3,12,13.1  c1.5,8.3-1.4,14.8-8.9,18.8c-0.8,0.4-1.5,0.8-2.5,1.2c4.4,5.9,8.3,11.9,12.6,18.2c-1.2,0.1-1.9,0.3-2.6,0.3c-2.9,0-5.8-0.1-8.6,0  c-1.6,0.1-2.7-0.5-3.6-1.9c-3-4.5-6.1-8.8-9-13.3c-0.8-1.2-1.7-1.7-3.1-1.7c-3.1,0.1-6.2,0-9.5,0c-0.1,1.2-0.2,2.1-0.2,3.1  c0,3.8,0,7.5,0,11.3c0,2.3-0.1,2.4-2.5,2.4c-2.9,0-5.7,0-8.9,0c-0.1-1-0.2-1.7-0.3-2.5c-0.1-16-0.1-32-0.1-48  C740.1,383.5,740.3,382.8,740.3,381.8z M752,408.3c0.6,0.1,0.9,0.2,1.2,0.2c4.2,0,8.5,0.1,12.7-0.1c1.9-0.1,3.8-0.6,5.5-1.3  c2.9-1.2,4.3-3.6,4.4-6.8c0.1-3.3-1.3-5.7-4.2-7.2c-1.9-1-4-1.5-6.2-1.5c-3.8,0-7.7,0-11.5,0c-0.6,0-1.2,0.1-1.9,0.2  C752,397.4,752,402.8,752,408.3z"></path>
    <path class="st0" d="M814.7,435.6c-4.4-0.2-8.8-0.6-13-2.2c-3.1-1.1-5.7-2.8-8-5.1c-2.3-2.4-3.7-5.2-3.8-8.6  c-0.1-2.1,0.4-2.6,2.4-2.7c2.3-0.1,4.6-0.1,7-0.1c1.1,0,2.1,0.3,2.4,1.5c1.1,4.3,4.2,6,8.1,6.8c3.7,0.7,7.5,0.8,11.2-0.3  c1.6-0.5,3.3-1.3,4.6-2.4c3.2-2.9,2.1-7.5-2.1-8.6c-2.6-0.7-5.4-0.8-8.1-1.1c-4.4-0.5-8.9-0.9-13.3-1.4c-1.1-0.1-2.2-0.5-3.2-0.9  c-8.8-3.2-11.9-12.4-6.7-20.3c2.5-3.8,6-6.4,10.3-7.9c3-1.1,6.2-1.5,9.4-1.6c4.7-0.2,9.3,0.1,13.7,1.7c3.2,1.1,5.9,2.8,8.1,5.4  c2,2.3,3,5.1,3.1,8.1c0,1.5-0.4,2-2,2.1c-2.6,0.1-5.3,0-7.9,0c-1,0-1.7-0.4-2-1.4c-0.8-3.5-3.3-5-6.5-5.6c-3.6-0.7-7.3-0.7-10.9,0.3  c-1.8,0.5-3.4,1.4-4.6,2.9c-2.3,3-1.3,6.5,2.3,7.5c1.8,0.5,3.6,0.6,5.4,0.8c4.9,0.5,9.9,0.9,14.8,1.5c1.8,0.2,3.6,0.8,5.3,1.5  c8.5,3.5,11.3,13.4,6,21c-3.4,4.9-8.2,7.5-13.9,8.5C820.2,435.2,817.4,435.3,814.7,435.6z"></path>
    <path class="st0" d="M515.9,414.9c0,1.1,0,1.9,0,2.8c0,4.9,0,9.8,0,14.6c0,2.3-0.1,2.4-2.5,2.4c-2.5,0-5,0-7.4,0  c-1.5,0-1.7-0.3-1.8-1.9c0-0.5,0-1,0-1.4c0-15.5,0-31,0-46.5c0-0.5,0-1,0-1.4c0.1-1.6,0.3-1.8,1.9-1.8c2.6,0,5.1,0,7.7,0  c2,0,2.2,0.2,2.2,2.2c0,5.1,0,10.2,0,15.4c0,1.7,0,3.5,0,5.4c10.4,0,20.4,0,30.7,0c0.5-2.4,0.2-4.9,0.2-7.3c0.1-2.6,0-5.1,0-7.7  c0-2.5,0-4.9,0-7.5c0.6-0.2,1.1-0.4,1.5-0.4c2.9,0,5.8-0.1,8.6,0c1.5,0,1.7,0.3,1.8,1.9c0,0.5,0,1,0,1.4c0,15.5,0,31,0,46.5  c0,3.2,0,3.2-3.1,3.2c-2.2,0-4.5,0-6.7,0c-1.9,0-2.1-0.2-2.1-2.1c0-4.8,0-9.6,0-14.4c0-0.5,0-1,0-1.4c-0.1-2-0.1-2.2-2.2-2.2  c-8.9,0-17.8,0-26.6,0C517.4,414.7,516.9,414.8,515.9,414.9z"></path>
    <path class="st0" d="M855.8,415.1c0,6.4,0,12.8,0,19.2c-0.7,0.2-1.1,0.4-1.6,0.4c-2.7,0-5.4,0.1-8.2,0c-1.6,0-1.8-0.2-1.9-1.8  c0-0.6,0-1.1,0-1.7c0-15.3,0-30.7,0-46c0-1.1,0.1-2.2,0.2-3.4c3.8,0,7.4,0,11.2,0c0.4,2.5,0.2,5,0.2,7.4c0,2.6,0,5.1,0,7.7  c0,2.5,0,4.9,0,7.3c1.8,0.7,27.1,0.9,30.8,0.3c0-0.8,0.1-1.6,0.1-2.5c0-5.8,0-11.5,0-17.3c0-0.6,0-1.1,0-1.7  c0.1-0.8,0.5-1.4,1.4-1.4c3.4,0,6.8,0,10.5,0c0.1,1.1,0.3,2,0.3,2.8c0,15.8,0,31.7,0,47.5c0,0.4,0,0.8,0,1.2  c-0.1,1.1-0.6,1.6-1.7,1.6c-2.9,0-5.8,0-8.6,0c-1.5,0-1.8-0.4-1.8-2.2c0-4.6,0-9.1,0-13.7c0-1.3,0-2.5,0-3.7  C884.7,414.5,858.5,414.5,855.8,415.1z"></path>
    <path class="st0" d="M442.1,434.2c8.5-17.6,17-35,25.5-52.5c2.8,0,5.4,0,8.1,0c0.8,0,1.3,0.4,1.7,1.1c0.5,1.1,1.1,2.1,1.6,3.2  c7.4,15.3,14.8,30.6,22.3,45.9c0.4,0.8,0.7,1.5,1.1,2.7c-1.2,0.1-1.9,0.2-2.7,0.2c-2.6,0-5.1-0.1-7.7,0c-1.6,0.1-2.5-0.6-3.2-2  c-0.9-2-1.9-3.9-2.8-5.8c-0.5-1.1-1.2-1.5-2.4-1.5c-7.6,0-15.2,0-22.8,0c-1.2,0-1.9,0.4-2.4,1.5c-0.9,2.1-1.9,4-2.9,6.1  c-0.5,1-1.1,1.7-2.3,1.7c-3.4,0-6.7,0-10.1-0.1C442.9,434.7,442.6,434.5,442.1,434.2z M463.5,416c4,0.6,15.5,0.4,17.3-0.4  c-1-2.1-2-4.1-3-6.2c-1-2.1-1.9-4.2-2.9-6.3c-0.9-2.1-1.4-4.3-2.6-6.5C469.3,403.2,466.4,409.5,463.5,416z"></path>
    <path class="st0" d="M678.2,434.3c0.4-0.9,0.7-1.6,1-2.3c7.8-16,15.6-32,23.3-48.1c0.8-1.7,1.7-2.5,3.6-2.3c2.1,0.2,4.3,0,6.7,0  c8.5,17.5,17,35,25.6,52.7c-0.9,0.2-1.4,0.4-1.9,0.4c-2.9,0-5.8,0-8.6,0c-1.5,0-2.4-0.5-3-1.9c-0.9-2-2-4-2.9-6  c-0.5-1-1.1-1.4-2.2-1.4c-7.7,0-15.3,0-23,0c-1.2,0-1.9,0.5-2.4,1.6c-0.9,2.1-1.9,4.1-2.8,6.1c-0.5,1-1.2,1.6-2.4,1.6  c-3.3,0-6.6,0-9.8,0C679,434.7,678.8,434.5,678.2,434.3z M699.5,416.1c5.9,0,11.4,0,17.5,0c-1.1-2.4-2.1-4.4-3.1-6.5  c-1-2.2-1.9-4.4-3-6.5c-1-2-1.2-4.3-2.7-6.2C705.3,403.3,702.4,409.6,699.5,416.1z"></path>
    <path class="st0" d="M711.8,516.2c0,2,0,3.6,0,5.3c-5.6-2.1-27.5-27.3-31.8-36.4c1.1,0.4,2,0.6,2.8,1c4.3,2.2,8.8,4.3,12.9,6.9  c5.8,3.6,11.3,7.5,16.9,11.4c7.3,5.1,15.2,8.8,23.9,10.6c5.7,1.1,11.4,1.7,17.1,0.3c2.8-0.7,5.2-2,7.3-4c2.9-2.8,3.2-5.2,0.9-8.5  c-0.6-0.9-1.3-1.7-1.9-2.5c-0.4-0.6-0.9-1.1-1.3-1.8c-2.5-4.1-0.8-8.1,4-8.6c5.9-0.6,11.4,0.8,15.3,5.7c3.9,4.8,4.3,10.4,2.1,16.1  c-2.6,6.9-8.1,10.2-15.1,11.5c-5.6,1-11.3,0.7-17,0.2c-10.1-0.9-19.9-3.5-29.8-5.8C716.2,517.1,714.2,516.7,711.8,516.2z"></path>
    <path class="st0" d="M282.4,110.7c0-1.9,0-3.5,0-5.1c6.1,2.7,27.2,27,31.7,36.3c-0.8-0.2-1.5-0.4-2.1-0.6  c-5.8-2.2-11.1-5.3-16.2-8.8c-5.5-3.7-11-7.4-16.4-11.2c-7.6-5.2-15.9-8.4-25-9.8c-4.6-0.7-9.2-0.9-13.8,0.3  c-3.1,0.8-5.8,2.3-7.9,4.7c-2.2,2.5-2.4,4.6-0.6,7.4c0.6,0.9,1.3,1.8,2,2.7c0.6,0.8,1.3,1.7,1.8,2.6c2.1,3.7,0.3,7.5-3.9,8  c-6,0.6-11.6-0.6-15.6-5.5c-3.9-4.9-4.4-10.5-2.1-16.3c1.9-4.9,5.4-8.2,10.3-10.1c3.3-1.3,6.8-1.8,10.3-1.9c8-0.3,15.8,0.6,23.6,2.2  c7.1,1.5,14.2,3.1,21.3,4.7C280.4,110.4,281.2,110.5,282.4,110.7z"></path>
    <path class="st0" d="M680.3,141.8c8.5-13.8,18.6-26.1,31.3-36.8c0.1,2.1,0.2,3.7,0.3,5.6c1-0.1,1.9-0.2,2.7-0.4  c7.9-1.7,15.7-3.5,23.7-5.1c7.2-1.5,14.6-2.1,21.9-1.7c4.1,0.2,8.1,0.9,11.8,2.9c7.2,3.7,10.8,11.9,8.8,19.7  c-1.7,6.5-7,10.8-14.2,11.2c-1.8,0.1-3.7,0.1-5.4-0.4c-3.1-0.9-4.4-3.9-3-6.9c0.5-1,1.1-1.9,1.8-2.8c0.7-1,1.5-1.9,2.2-2.9  c2.1-3.1,1.9-5.4-0.8-8.1c-2.8-2.8-6.3-4.2-10.2-4.8c-7.8-1.1-15.3,0.7-22.6,3.1c-4.7,1.6-9.1,3.9-13.2,6.7  c-5.6,3.8-11.2,7.7-16.8,11.5c-5,3.4-10.1,6.4-15.8,8.6C681.8,141.4,681,141.6,680.3,141.8z"></path>
    <path class="st0" d="M282.5,516.2c-3.1,0.7-5.9,1.3-8.6,1.8c-7.8,1.6-15.6,3.4-23.5,4.7c-6.9,1.2-14,1.4-21,0.3  c-2.8-0.4-5.4-1.3-7.9-2.7c-6.8-4-10.1-12.3-7.8-19.9c1.4-4.6,4.3-7.8,8.8-9.4c2.5-0.9,5.1-1.5,7.7-1.3c0.9,0.1,1.9,0.2,2.8,0.5  c3.1,1,4.4,3.9,3.1,6.9c-0.5,1.1-1.3,2.2-2,3.2c-0.7,1-1.5,1.9-2.1,2.9c-1.8,2.8-1.6,4.9,0.7,7.4c2.7,2.9,6.2,4.4,10.1,5  c5.7,1,11.3,0.1,16.9-1.2c6.9-1.6,13.4-4.3,19.2-8.4c5.5-3.8,11.1-7.6,16.6-11.4c5-3.4,10.1-6.4,15.7-8.7c0.9-0.3,1.8-0.6,2.8-0.7  c-8.7,13.6-18.7,26-31.4,36.7c-0.1-1.3-0.1-2.1-0.1-3C282.4,518.3,282.5,517.5,282.5,516.2z"></path>
    <path class="st0" d="M460.7,210.5c0,11.5-9.3,20.7-20.8,20.8c-11.7,0-21.1-9.4-20.9-21.1c0.1-11.7,9.3-20.8,21-20.7  C451.7,189.5,460.8,198.7,460.7,210.5z"></path>
    <path class="st0" d="M255.8,210.4c0,11.6-9.4,20.9-21,20.8c-11.6-0.1-20.8-9.4-20.8-21c0.1-11.7,9.3-20.8,21-20.8  C246.6,189.5,255.8,198.7,255.8,210.4z"></path>
    <path class="st0" d="M272.6,210c0.2-11.8,9.6-20.8,21.4-20.6c11.5,0.2,20.5,9.6,20.4,21.4c-0.1,11.3-9.7,20.5-21.1,20.4  C281.7,231.1,272.4,221.6,272.6,210z"></path>
    <path class="st0" d="M197,210.2c0,11.6-9.2,21-20.8,21c-11.5,0-20.9-9.3-21-20.9c0-11.6,9.3-20.9,20.9-20.9  C187.8,189.4,197,198.6,197,210.2z"></path>
    <path class="st0" d="M381.8,173.2c-1.8-0.2-3.6-0.3-5.3-0.7c-3.8-1.1-7.6-2-11.1-3.6c-18.4-8.2-35.2-18.8-49.6-33.1  c-5.9-5.9-11-12.4-15.5-19.5c-0.5-0.8-1-1.6-1.7-3c2.3,0.7,4.1,1.3,5.9,1.9c0.1-0.1,0.3-0.2,0.4-0.2c-5.1-7-3.9-14.3-1.5-22.4  c0.9,2.4,1.7,4.2,2.4,6.1c0.1,0,0.3,0,0.4,0c0.1-0.7,0.1-1.4,0.2-2.2c0.3-7.3,5.8-11.4,12.8-9.4c5.3,1.5,8.6,5.1,9.9,10.4  c0.1,0.5,0.1,1.1,0.2,2.3c-1.8-2.4-3.3-4.3-5.1-6.6c-0.1,1.9-0.2,3.2-0.3,4.5c-1,0-1.9-0.1-2.8,0c-2.4,0.2-3.8,1.4-4.4,3.7  c-0.7,2.4-0.2,4.8,0.3,7.1c1.8,7.7,5.1,14.7,9.8,21.2c7.9,10.9,17.8,19.8,28.8,27.6c7.6,5.4,15.7,10.2,24.1,14.3  c0.8,0.4,1.5,0.8,2.2,1.2C381.9,172.9,381.8,173.1,381.8,173.2z"></path>
    <path class="st0" d="M670.3,97.7c-0.1-1.4-0.1-2.6-0.2-4.3c-2.1,1.9-3.2,4-5.2,5.6c0.2-0.9,0.3-1.8,0.6-2.7  c1.6-5.4,6.6-9.5,12.1-9.8c5.6-0.4,9.8,3.3,10.2,9.1c0.1,0.9,0,1.9,0,3.4c1.8-2,1.8-4.2,3.1-6.3c2.5,7.8,3.5,15.1-1.4,22.1  c0.1,0.1,0.2,0.2,0.4,0.3c1.7-0.6,3.5-1.2,5.2-1.8c0.1,0.1,0.2,0.2,0.3,0.3c-0.4,0.7-0.8,1.4-1.2,2.1c-5.9,9.6-13.2,18.1-21.7,25.5  c-13.3,11.6-28.1,20.8-44.3,27.8c-4.3,1.8-8.7,3.2-13.3,3.8c-0.8,0.1-1.7,0.2-2.6-0.2c0.8-0.4,1.6-0.9,2.5-1.3  c13.6-6.8,26.2-15,37.5-25.2c6.7-6,12.7-12.6,17.5-20.2c3.9-6.2,6.7-12.9,7.8-20.2c0.2-1.4,0.2-2.9-0.1-4.3c-0.5-2.8-2.2-4.1-5.1-4  C671.9,97.6,671.2,97.7,670.3,97.7z"></path>
    <path class="st0" d="M612.4,454.3c3.2-0.3,6.2,0.3,9.2,1.2c7.5,2.2,14.4,5.8,21.1,9.5c13.3,7.4,25.6,16,36.3,26.9  c6.1,6.2,11.3,13,15.8,20.4c0.2,0.4,0.4,0.8,0.9,1.5c-2.2-0.7-4-1.4-5.9-2c-0.1,0.1-0.3,0.2-0.4,0.3c2.1,3.3,3.5,6.8,3.5,10.7  c-0.1,3.8-0.8,7.4-2.1,11.6c-0.9-2.4-1.7-4.2-2.4-6.1c-0.1,0-0.2,0-0.4,0c-0.1,0.5-0.2,0.9-0.2,1.4c-0.1,0.6,0,1.1-0.1,1.7  c-0.5,5.9-4.5,9.5-10.5,9c-7.3-0.6-12.4-7.2-12.3-13c1.7,2.2,3.2,4.1,5,6.4c0.1-1.9,0.2-3.2,0.3-4.6c0.8,0.1,1.4,0.1,2,0.2  c2.9,0.1,4.7-1.3,5.3-4.1c0.5-2.4,0.1-4.8-0.5-7.1c-2.3-9.5-7-17.8-13.2-25.3c-8.6-10.4-18.7-19-30-26.3c-6.2-4-12.8-7.5-19.3-11.2  C614,455,613.2,454.7,612.4,454.3z"></path>
    <path class="st0" d="M323.9,529.3c0.1,1.5,0.1,2.7,0.2,3.9c0.1,0.1,0.3,0.1,0.4,0.2c1.4-1.8,2.9-3.7,4.3-5.5  c0.1,0.1,0.3,0.1,0.4,0.2c-0.2,0.8-0.3,1.7-0.5,2.4c-1.7,5.3-5.3,8.5-10.6,9.7c-6.2,1.3-11.1-2.4-11.7-8.8c-0.1-0.9-0.1-1.9-0.6-3  c-0.7,1.8-1.5,3.6-2.4,5.9c-2.4-7.9-3.6-15.1,1.4-22.1c-0.1-0.1-0.2-0.2-0.3-0.4c-0.9,0.3-1.9,0.6-2.8,0.9c-0.9,0.3-1.8,0.6-3.2,1.1  c0.7-1.2,1.1-1.9,1.5-2.6c6.7-10.8,15-20.1,24.7-28.2c12.9-10.6,27-19.3,42.5-25.7c4.1-1.7,8.4-2.9,12.9-3.4c0.5-0.1,1.1,0,2.2,0  c-1.2,0.7-1.9,1.1-2.7,1.4c-14.5,7.2-27.9,16-39.7,27.1c-5.4,5-10.2,10.6-14.4,16.6c-4.1,6-7,12.6-8.6,19.6c-0.4,2-0.6,4.1-0.4,6.2  c0.3,3.3,2.3,4.7,5.6,4.5C322.7,529.4,323.2,529.3,323.9,529.3z"></path>
    <path class="st0" d="M643.7,434.6c-0.6-2.1-0.6-50.2,0-52.8c0.7-0.1,1.5-0.2,2.2-0.2c12.2,0,24.3,0,36.5,0c2.6,0,2.9,0.2,2.9,2.9  c0,1.4,0,2.9,0,4.3c0,2.5-0.3,2.7-2.8,2.7c-7.5,0-15,0-22.6,0c-1.4,0-2.9,0-4.2,0c-0.6,1.8-0.8,9.9-0.3,13.2c1,0.1,2,0.2,3,0.2  c6.7,0,13.4,0,20.2,0c0.6,0,1.3,0,1.9,0c1.1,0,1.8,0.6,1.8,1.8c0,2.1,0,4.2,0,6.2c0,1.2-0.6,1.8-1.7,1.8c-0.6,0-1.3,0-1.9,0  c-6.7,0-13.4,0-20.2,0c-1,0-2,0.1-3.3,0.2c0,1.1,0,2,0,2.8c0,4.8,0,9.6,0,14.4c0,2.3-0.1,2.4-2.5,2.5c-2.4,0-4.8,0-7.2,0  C644.9,434.7,644.3,434.6,643.7,434.6z"></path>
    <path class="st0" d="M324.6,211.8c-0.6-3.9-1.1-7.8-1.7-12c1-0.1,2-0.2,3.1-0.2c24.8,0,49.6,0,74.3,0c2.7,0,5.4,0,8.2,0  c0.9,0,1.7,0.1,2.6,0.1c-0.6,4.1-1.2,8-1.7,12C407.9,212.1,327.4,212.3,324.6,211.8z"></path>
    <path class="st0" d="M546.1,489.9c-1.1,1.5-1.9,2.6-2.7,3.7c0.1,0.2,0.2,0.3,0.3,0.5c2.2-0.6,4.4-1.2,6.6-1.8  c0.4,4.3-3.2,7.7-7.8,7.1c-2.4-0.3-4.9-1-7.1-2c-6-2.6-11.1-6.5-15.7-11.3c-4.1-4.3-5.4-9.5-5.3-15.2c0.1-5.6,1.4-11,4.2-15.8  c1.2-2.1,2.6-4,4.3-5.7c4.6-4.8,10.3-6.2,16.7-4.7c6.5,1.5,9.5,7.8,6.6,13.5c-2,4-5.9,5.1-9.6,2.7c-0.6-0.4-1.2-0.8-1.7-1.3  c-1-1.2-2.1-1.1-3.4-0.5c-2.4,1.1-4.7,2.4-6.6,4.3c-3.9,3.9-4.9,8.8-2.8,13.9c1.3,3.2,3.5,5.7,6.2,7.8c4.6,3.5,9.9,5.2,15.7,4.8  C544.5,489.8,544.9,489.9,546.1,489.9z"></path>
    <path class="st0" d="M443.7,492.2c2.4,0.6,4.6,1.2,6.8,1.8c0.1-0.1,0.2-0.3,0.3-0.4c-0.8-1.1-1.6-2.2-2.7-3.7c1.2,0,1.8,0,2.5,0  c7.9,0.1,14.5-2.7,19.5-9c2.5-3.3,3.9-7,2.9-11.2c-0.5-2.3-1.7-4.3-3.4-6c-2-2-4.4-3.4-7-4.6c-1.2-0.6-2.2-0.6-3.2,0.5  c-0.7,0.7-1.6,1.3-2.5,1.8c-3.2,1.7-6.4,0.8-8.4-2.2c-3.2-4.8-1.5-11.3,3.8-13.6c5.4-2.3,10.8-2.1,15.8,1.2c1.7,1.1,3.2,2.4,4.4,4  c6.3,8.1,8.5,17.2,6.4,27.3c-0.5,2.6-1.7,4.8-3.4,6.8c-5,5.9-11.1,10.4-18.3,13.2c-1.5,0.6-3.1,0.9-4.6,1.2  C448.5,500.1,444.2,498,443.7,492.2z"></path>
    <path class="st0" d="M448.4,136.8c0.8-1.2,1.6-2.3,2.4-3.5c-2.6-0.2-4.6,1-6.8,1.5c-0.4-3.4,2-6.5,5.4-7c2.3-0.3,4.5-0.1,6.6,0.7  c8.2,2.9,14.9,7.9,20.3,14.7c2.6,3.3,3.3,7.2,3.5,11.3c0.2,6.9-1.4,13.3-5.2,19.1c-2.9,4.5-6.7,8-12.2,9c-3.4,0.6-6.7,0.4-9.9-1  c-5.3-2.3-7.3-8.5-4.2-13.5c2-3.4,5.4-4.3,8.9-2.3c0.8,0.4,1.5,0.9,2.1,1.6c1,1,2,1.3,3.2,0.6c2-1.2,4.3-2.2,6.1-3.7  c5-4.2,6.1-10,3-15.7c-3.2-5.8-8.2-9.3-14.6-10.7C454.4,137.1,451.6,137.1,448.4,136.8z"></path>
    <path class="st0" d="M550.2,134.7c-2.2-0.6-4.4-1.1-6.6-1.7c-0.1,0.1-0.2,0.3-0.2,0.4c0.8,1.1,1.6,2.2,2.6,3.7c-1.8,0-3,0-4.3,0  c-6.8,0.3-12.5,3-17,8.2c-2.7,3.2-4.3,6.9-3.7,11.3c0.4,2.6,1.5,4.7,3.3,6.5c2.1,2.2,4.6,3.6,7.3,4.9c1.2,0.5,2.1,0.5,3-0.5  c0.8-0.8,1.7-1.4,2.7-1.9c3-1.6,6-0.8,8,2c3.6,5,1.6,11.9-4.2,14.1c-5.3,2-10.6,1.7-15.4-1.5c-1.6-1.1-3.2-2.4-4.4-4  c-6.1-7.9-8.3-16.8-6.4-26.6c0.5-2.8,1.8-5.3,3.6-7.5c5-5.8,11-10.2,18.1-13.1c2.6-1,5.2-1.6,8-1.2  C548.2,128.2,550.5,131.1,550.2,134.7z"></path>
    <path class="st0" d="M484.5,458.7c4.4,2.3,8.3,1.5,12-1.2c3.7,2.7,7.6,3.6,12.2,1.2c-0.3,0.9-0.5,1.4-0.7,1.9  c-4,9.4-6.5,19.2-7.4,29.4c-0.8,8.7-1.3,17.4-1.9,26c-1.2,20-0.4,40-0.6,59.9c0,1.1-0.1,2.2-0.4,3.3c-0.1,0.4-0.7,0.9-0.9,0.9  c-0.4-0.1-1.1-0.5-1.2-0.9c-0.2-1-0.2-2.1-0.2-3.1c0-13.3,0.1-26.7-0.1-40c-0.1-7.3-0.6-14.7-1-22c-0.2-4.6-0.5-9.3-0.8-13.9  c-0.7-11-2.1-21.9-5.7-32.5C486.9,464.8,485.7,462,484.5,458.7z"></path>
    <path class="st0" d="M509.7,168.3c-4.5-2.4-8.3-1.5-12,1.1c-3.7-2.5-7.6-3.7-12.2-1c0.4-1.2,0.7-1.9,1-2.6c3.8-9,6.1-18.4,7.1-28  c0.9-9.1,1.4-18.3,2-27.5c1.4-19.7,0.4-39.5,0.7-59.2c0-1.1,0.1-2.2,0.3-3.3c0.1-0.4,0.7-1,0.9-0.9c0.4,0.1,1,0.6,1.1,1  c0.2,1.1,0.3,2.2,0.3,3.3c0,13.4-0.1,26.9,0.1,40.3c0.1,6.8,0.5,13.6,0.9,20.4c0.2,4.8,0.5,9.6,0.8,14.4c0.7,11.3,2.1,22.4,5.8,33.2  C507.3,162.2,508.5,165,509.7,168.3z"></path>
    <path class="st0" d="M914,471.8c-3-0.2-5.9-0.4-8.8-0.7c-1.7-0.2-3.5-0.4-5.2-0.8c-3.1-0.7-5.9-2-8.1-4.3c-0.3-0.3-0.6-0.5-0.9-0.7  c0,0-0.2,0-0.4,0c-0.1,3.5,1.7,6.9,1.2,10.6c-2.8-0.3-5.5-0.6-8.2-0.9c-10.8-1.1-20.8,0.8-29.6,7.7c-0.1,0.1-0.3,0.1-0.8,0.4  c0.4-0.6,0.6-1.1,0.8-1.4c2.7-3.7,5.3-7.4,8.2-11c4.1-5.2,9-9.3,15.3-11.6c2.2-0.8,4.6-1.5,6.9-1.7c7.1-0.6,14.2-0.2,21.1,1.8  c2,0.6,3.9,1.4,5.7,2.5c3.3,2,4.2,4.6,3.2,8.4C914.3,470.5,914.2,471,914,471.8z M861.7,471.9c0.1,0.2,0.2,0.4,0.4,0.7  c2,0,3.1-1.9,4.8-2.5c1.8-0.7,3.6-1.3,5.4-2c1.9-0.7,3.7-1.5,5.6-2.1c1.8-0.6,3.6-0.9,5.7-1.5c-1.5-0.8-1.5-1-2.7-0.6  c-4.9,1.6-9.8,3.3-14.7,5.1C864.6,469.6,863.2,470.9,861.7,471.9z"></path>
    <path class="st0" d="M141.2,483c-5.3-4-11-6.6-17.4-7.7c-5.6-1-11.3-0.7-16.9,0.1c-1.4,0.2-2.8,0.4-4.4,0.6c-0.3-3.8,1.2-7.2,1.3-11  c-0.5,0.3-0.8,0.4-1,0.7c-2.6,2.9-5.9,4.4-9.6,4.9c-4.3,0.6-8.5,1-12.8,1.4c-0.2-0.5-0.3-0.7-0.3-0.9c-1.3-5.6-0.1-8.4,5.3-10.6  c2.8-1.2,5.9-1.9,9-2.5c5-1,10.2-1,15.3-0.7c5.2,0.4,9.9,2.5,14.1,5.4c3.3,2.2,6,5,8.5,8.1c1,1.2,1.9,2.4,2.8,3.6  C137,477.2,139.1,480.1,141.2,483z M110.6,464.4c1.1,0.3,1.8,0.5,2.4,0.7c1.6,0.4,3.3,0.8,4.8,1.4c4.4,1.8,9.2,2.7,13.1,5.8  c0.1,0.1,0.3,0.2,0.4,0.2c0.4,0,0.8-0.1,1.6-0.2c-6-4.7-12.8-6.3-19.4-8.3C112.7,463.6,111.8,463.4,110.6,464.4z"></path>
    <path class="st0" d="M132.6,155.5c-5.4,7.2-12.2,12.7-21.3,14c-8,1.2-16.1,0.6-23.9-2c-1.9-0.7-3.8-1.7-5.5-2.9  c-2.3-1.7-3.1-4.2-2.3-7c0.2-0.7,0.3-1.4,0.5-2.3c1.8,0.1,3.7,0.2,5.6,0.4c2.6,0.3,5.3,0.5,7.8,1c3.5,0.6,6.6,2,9,4.7  c0.2,0.2,0.5,0.4,1,0.8c0.2-3.8-1.6-7.2-1.2-10.9c2.5,0.3,4.9,0.5,7.2,0.8c11.5,1.3,22.2-0.6,31.3-8.2c0.1-0.1,0.3,0,0.7-0.1  C138.5,147.7,135.5,151.6,132.6,155.5c-0.1-1.3-0.8-1.3-1.8-0.7c-1.4,0.8-2.6,2-4.1,2.5c-4.9,1.7-9.5,4-14.7,4.9  c-0.4,0.1-0.7,0.3-1.1,0.5c1.7,1,3.3,0.4,4.8-0.1c2.5-0.8,4.9-1.8,7.4-2.6c2.6-0.8,5.1-1.8,7.3-3.4  C131.1,156,131.9,155.8,132.6,155.5z"></path>
    <path class="st0" d="M852.9,144c4.3,3,8.9,5.6,14.1,6.9c5.5,1.4,11,1.6,16.6,1.1c2.6-0.2,5.2-0.6,8.1-0.9c0.5,3.7-1.2,7.1-1.2,10.7  c0.4-0.1,0.6-0.1,0.8-0.3c2.8-3.2,6.4-4.7,10.5-5.2c4-0.5,8.1-0.8,12.1-1.3c0.2,0.4,0.3,0.6,0.3,0.9c1.3,5.5,0,8.3-5.3,10.7  c-3.2,1.5-6.5,2.3-9.9,2.6c-3.7,0.4-7.5,0.5-11.2,0.6c-7.3,0.3-13.6-2.4-19.1-7c-2.6-2.1-4.9-4.6-7-7.2  C858.6,151.9,855.8,147.9,852.9,144z M883.1,163c0-0.2,0-0.4,0.1-0.6c-1.8-0.5-3.7-0.9-5.5-1.4c-1.8-0.6-3.6-1.3-5.4-2  c-1.9-0.7-3.7-1.4-5.6-2.1c-1.7-0.6-2.8-2.5-4.9-2.2c4.5,4.7,10.9,5.6,16.5,7.9C879.8,163.1,881.5,163.7,883.1,163z"></path>
    <path class="st0" d="M302.2,146.3c-0.1-2-0.2-3.7-0.2-5.4c1.8,0.3,3.5,0.6,5.1,0.9c3.8,0.6,7.5,1.7,10.9,3.5c4.5,2.4,9,4.9,13.3,7.6  c4.1,2.5,7.9,5.4,12,8c5.7,3.7,11.5,7.2,16.9,10.6c-5.2-1.3-10.7-3.1-16-5.4c-5.3-2.3-10.6-4.9-15.9-7.2c-5.5-2.4-11.2-4.4-17.3-4.7  c-1.8-0.1-3.7,0-5.5,0.4c-3.8,0.8-6.5,3.1-8,6.6c-0.7,1.7-1.1,3.7-1.5,5.5c-0.3,1.2-0.3,2.5-0.5,3.7c-4.9,0.7-9.2-3.2-9.3-8.4  c-0.2-6.7,5.4-13.7,12.1-15.2C299.6,146.7,300.8,146.6,302.2,146.3z"></path>
    <path class="st0" d="M633.5,171.6c9-4.5,17-10.5,25.3-16c4.7-3.1,9.4-6,14.3-8.7c5.1-2.8,10.4-4.9,16.3-5.2c0.8-0.1,1.6-0.5,2.6-0.9  c0,1.8,0,3.6,0,5.6c0.5,0.1,1,0.2,1.5,0.3c7.3,0.7,13.3,6.5,14.3,13.7c0.8,5.9-3.2,10.6-9.1,10.4c-0.2-1.3-0.4-2.6-0.6-4  c-0.1-0.7-0.2-1.4-0.4-2.1c-1.7-7.5-6.7-10.8-14.4-10.4c-5.3,0.3-10.4,1.8-15.3,3.9c-4.7,2-9.4,4.1-14,6.3  C647.5,167.5,640.6,169.8,633.5,171.6z"></path>
    <path class="st0" d="M634.3,455.9c6.2,1.3,12,3.3,17.7,5.8c4.9,2.2,9.7,4.5,14.6,6.6c4.9,2.1,9.9,3.8,15.2,4.3  c2.3,0.2,4.7,0.1,6.9-0.3c4.2-0.8,6.9-3.6,8.3-7.5c0.7-2.2,1-4.5,1.4-6.8c0.1-0.5,0.1-1.1,0.2-1.6c4.8-0.5,9.1,3.2,9.3,8.2  c0.4,7.5-6.1,15-13.6,15.8c-0.7,0.1-1.4,0.1-2.3,0.2c0.1,2.1,0.3,4.2,0.4,6.2c-1.1-1.4-2.6-1.4-4.1-1.5c-4.4-0.4-8.4-1.9-12.3-3.7  c-6-2.8-11.6-6.4-17.1-10.1c-5.7-3.8-11.4-7.6-17.2-11.4C639.3,458.5,636.8,457.3,634.3,455.9z"></path>
    <path class="st0" d="M295.6,456.3c0.1,0.9,0.3,1.8,0.4,2.8c0.1,0.7,0.1,1.4,0.2,2.1c1.6,8.8,7.2,12.4,15.8,11.5  c6.3-0.6,12.1-2.8,17.8-5.3c6.1-2.6,12.1-5.5,18.2-8c3.4-1.4,7-2.3,10.4-3.5c0.4-0.1,0.9-0.2,1.4,0c-1,0.5-2,1-2.9,1.6  c-4.7,2.9-9.4,5.8-14,8.8c-6.4,4.1-12.7,8.4-19.1,12.3c-4.9,3-10.2,5.3-15.9,6.4c-1.9,0.4-3.9,0.6-5.8,0.9c0-1.6,0-3.4,0-5.3  c-0.5-0.1-1.1-0.2-1.6-0.2c-7.4-0.6-13.8-7.1-14.3-14.5C285.9,460.4,289.9,456.1,295.6,456.3z"></path>
    <path class="st0" d="M553.1,453.8c-0.4,0.6-0.8,1.3-1.2,1.9c-2.8,4.3-5,8.9-5.9,14.1c-0.4,2.3-0.4,4.6-0.3,6.9  c0.2,2.5,1.3,4.6,3.2,6.3c4.9,4.2,10.5,6,16.9,4.8c5.8-1.1,8.5-7.5,5.5-12.5c-0.6-1-0.6-1-2.2-0.7c0.5,0.7,1,1.3,1.4,1.9  c1.1,1.8,0.8,3.4-0.9,4.6c-2.3,1.7-7,1.9-9.4,0.4c-1.6-1-2.4-2.3-2.3-4.2c0-0.6,0.1-1.3,0.3-1.9c1.9-7.3,7.4-9.3,13.4-4.7  c3.7,2.8,6.3,6.4,7.2,11c1.5,8.3-5.3,15.9-13.8,15.4c-11.1-0.6-21.2-9.6-23.1-19.8c-0.7-4.1-0.3-8,1.3-11.8  C545.2,460.5,548.9,457,553.1,453.8z"></path>
    <path class="st0" d="M441.3,173.3c2.4-4,4.6-8,6-12.3c1.1-3.3,1.6-6.6,1.3-10.1c-0.3-3-1.6-5.5-4-7.4c-4.6-3.7-9.9-5.1-15.7-4.2  c-6.1,0.9-9.1,7.4-6,12.6c0.5,0.8,1,1.5,2.2,0.7c-0.5-0.7-1-1.3-1.4-1.9c-1.1-1.7-0.8-3.2,0.7-4.4c2.4-1.9,7.3-2.1,9.8-0.4  c1.4,0.9,2.1,2.2,2.1,3.8c-0.1,3.2-1.3,5.9-3.8,8c-1.6,1.3-3.5,1.7-5.4,1.1c-1.3-0.4-2.6-0.9-3.7-1.7c-3.7-2.5-6.3-5.9-7.6-10.2  c-2.1-6.9,2.2-14.6,9.2-16.3c2.9-0.7,5.9-0.6,8.8,0.3c9.6,3,16.2,9,18.5,19.1c1,4.5,0.3,8.9-1.8,13.1  C448.4,167.1,445,170.4,441.3,173.3z"></path>
    <path class="st0" d="M569.3,152.4c1,0.7,1.5,0.2,2-0.6c2.8-4.4,0.9-10.3-4-12.2c-2.5-0.9-5-0.9-7.6-0.6c-3.5,0.4-6.6,1.7-9.5,3.8  c-3,2.2-4.5,5.1-4.7,8.8c-0.2,4.7,0.9,9.1,2.8,13.2c1.3,2.7,2.8,5.3,4.1,8.1c-1.7-1.2-3.2-2.7-4.6-4.3c-3-3.2-5.1-6.9-5.9-11.3  c-0.8-3.9-0.5-7.7,1-11.3c4.1-9.5,11.3-15.1,21.7-16.1c8.6-0.8,15.4,6.4,14.1,14.8c-1,6.1-4.6,10.7-10.3,13.3  c-3.6,1.7-6.8,0.5-8.8-2.9c-0.7-1.2-1.3-2.6-1.6-4c-0.7-3,0.6-5.2,3.5-6.2c2.5-0.8,5.1-0.7,7.5,0.6c2.4,1.2,2.9,3.1,1.3,5.3  C570,151.4,569.6,151.9,569.3,152.4z"></path>
    <path class="st0" d="M425.1,474.5c-1.1-0.6-1.6-0.3-2,0.4c-2.2,3.4-2,10,3.4,12.1c1.7,0.7,3.7,1,5.6,1c3.7,0,7.2-1.1,10.5-3  c4.7-2.7,6.5-6.8,6.1-12.1c-0.4-6.2-2.9-11.7-6.1-17c-0.4-0.6-0.8-1.3-1.4-2.3c13.2,9.6,14.8,23.8,5.9,34.1  c-4.4,5.1-9.9,8.3-16.6,9.1c-5,0.6-9.4-0.8-12.5-5c-3.1-4.3-3.8-8.9-1.4-13.8c1.5-3.2,3.6-5.9,6.5-7.8c1.3-0.9,2.8-1.5,4.3-1.9  c2-0.6,3.8,0,5.3,1.4c2,1.8,3.1,4.2,3.4,6.9c0.3,2.7-0.9,4.5-3.5,5.3c-2.4,0.8-4.7,0.7-7-0.3c-2.9-1.3-3.5-3.3-1.6-5.9  C424.4,475.4,424.7,475,425.1,474.5z"></path>
    <path class="st0" d="M257.3,168.5c-5.3-5-4.9-12.7,0.7-17.7c-2.5-0.4-4.8-0.9-7.3-1.3c0.6-2.9,1.7-5.4,3.3-7.7  c1.6-2.4,3.7-4.1,6.7-4.8c0-0.2-0.1-0.3-0.1-0.5c-1.1-0.5-2.2-1-3.7-1.7c1.4-1.1,2.4-2,3.6-2.7c4.4-2.8,9.4-3.6,14.5-3.3  c8.1,0.5,15.7,2.6,22.9,6.5c0.3,0.2,0.6,0.3,0.8,0.5c0.1,0.1,0.2,0.2,0.5,0.4c-0.9,0.7-1.9,0.8-2.8,0.9c-3.8,0.4-7.6,0.6-11.4,1  c-2.4,0.2-4.8,0.5-7.1,1c-6.4,1.4-11.1,5.1-14.2,10.8c-2.4,4.4-3.6,9.2-4.9,14C258.2,165.4,257.8,166.8,257.3,168.5z"></path>
    <path class="st0" d="M256.9,492.1c1.5-0.7,2.7-1.2,4.3-1.9c-3.2-0.9-5.4-2.4-7.1-4.8c-1.6-2.3-2.7-4.9-3.4-7.7  c2.3-1.1,4.7-0.9,7.4-1.5c-2.5-1.8-4.2-3.7-4.6-6.5c-0.3-2.4-0.2-4.8,0.7-7.1c0.6-1.5,1.3-3.1,3-4.2c0.3,1.1,0.6,2,0.8,2.9  c1.3,4.1,2.4,8.3,3.9,12.3c1.9,5.1,4.9,9.3,9.8,12c3.6,2,7.4,2.8,11.5,3.1c4.1,0.3,8.1,0.6,12.2,1c1.2,0.1,2.4,0.5,4.1,0.8  c-0.9,0.6-1.3,1-1.7,1.2c-8.2,4.2-16.9,6.6-26.2,6.4c-4.3-0.1-8.3-1.4-12-3.8C258.8,493.7,258,493,256.9,492.1z"></path>
    <path class="st0" d="M695.1,136.2c0.4-0.3,0.7-0.6,1.1-0.8c8.1-4.3,16.8-6.7,26-6.6c4.3,0,8.4,1.2,12,3.5c1,0.7,2,1.5,3.2,2.5  c-1.5,0.7-2.6,1.1-4,1.7c1.4,0.8,2.7,1.2,3.8,2.1c1.1,0.8,2,1.8,2.8,2.9c0.8,1.2,1.5,2.5,2.1,3.8c0.6,1.2,0.9,2.5,1.5,4.1  c-2.5,0.5-4.9,0.9-7.6,1.4c3.7,2.2,4.9,5.3,4.8,9.1c-0.2,3.2-1.1,6.1-3.7,8.8c-0.4-1.3-0.7-2.3-1-3.2c-1-3.5-2-7.1-3.1-10.6  c-0.5-1.4-1.1-2.8-1.8-4.2c-3.5-7.1-9.3-11.1-17-12.1c-4-0.5-8.1-0.6-12.2-1c-2.3-0.2-4.5-0.6-6.8-0.9  C695.1,136.5,695.1,136.4,695.1,136.2z"></path>
    <path class="st0" d="M736.1,476.3c2.6,0.4,5,0.8,7.5,1.2c-1.8,5.8-4,10.8-10.6,12.7c1.6,0.7,2.7,1.2,4.2,1.8c-1,0.9-1.7,1.6-2.6,2.2  c-3.4,2.3-7.1,3.6-11.2,3.8c-9.8,0.4-19-2.1-27.6-6.7c-0.2-0.1-0.4-0.3-0.6-0.4c-0.1,0-0.1-0.1-0.2-0.4c2.6-1,5.3-1.1,7.9-1.4  c3.7-0.3,7.5-0.4,11.2-0.9c8-1.1,13.9-5.3,17-12.7c1.9-4.5,3.2-9.4,4.7-14.1c0.3-1,0.6-1.9,0.9-3C742.2,463,741.8,471.3,736.1,476.3  z"></path>
    <path class="st0" d="M706.1,481.6c3.2-0.1,5.4-1.8,7.3-4c2.8-3.3,4.4-7.2,5.3-11.4c0.6-2.9,0.8-6,1.3-9.2c1.9,1.3,3.7,2.7,5.9,4.2  c-0.1-3.3-1.7-5.4-3.7-7.1c-2-1.7-4.2-3.1-6.2-4.7c7.4-3,12.9,0.9,14.6,6.1c3.9,11.7-2.2,26.7-15,30.4c-6.1,1.7-12.2,2.2-18.5,2.1  c-0.8,0-1.5-0.2-2.3-0.3c-0.1-0.2-0.2-0.3-0.4-0.5c0.5-0.3,1.1-0.6,1.6-1c2.5-2,5-4,7.5-6c3.8-3.2,7.4-6.5,9.7-11.1  C713.4,474.6,710.4,478.4,706.1,481.6z"></path>
    <path class="st0" d="M281.1,158.5c-0.1-3.1,0.4-5.5,1.8-7.6c1.4-2,3.2-3.6,5.2-5.8c-1.2,0.3-2,0.4-2.8,0.7c-2.5,1.1-4.3,3-5.8,5.2  c-2.6,3.9-4,8.3-4.6,13c-0.2,1.9-0.3,3.8-0.5,5.8c-2.4-0.6-3.6-2.8-6.1-3.8c1,6.2,5.7,8.6,10,11.5c-4.9,2.6-11,0.8-13.5-3.9  c-1-1.9-1.7-4-1.9-6.1c-0.8-6.4,0.6-12.4,4.3-17.8c3.5-5.2,8.6-8,14.6-9.3c5.7-1.2,11.4-1.5,17.2-1.1c0.2,0,0.4,0.1,0.9,0.3  c-0.5,0.5-0.9,1-1.3,1.4c-2.6,2.1-5.3,4.2-7.8,6.3C286.9,150.3,283.5,153.6,281.1,158.5z"></path>
    <path class="st0" d="M278.5,449.4c-4.4,2.8-9,5.3-10.2,11.3c1.6-0.1,2.2-1.2,3.1-1.9c0.9-0.6,1.8-1.3,2.9-2.1  c0.2,2.4,0.3,4.4,0.6,6.4c0.8,5,2.4,9.6,5.4,13.7c1.4,1.8,3,3.4,5.1,4.2c0.8,0.3,1.7,0.5,2.7,0.5c-2.7-2.3-5.3-4.5-6.3-7.9  c-0.4-1.4-0.6-2.9-0.9-4.4c0.2-0.1,0.3-0.1,0.5-0.2c0.3,0.4,0.6,0.8,0.8,1.3c1.6,2.8,3.8,5.2,6.2,7.3c3.1,2.7,6.3,5.2,9.4,7.8  c0.7,0.5,1.3,1.1,2.4,2c-1.5,0.2-2.4,0.4-3.3,0.4c-5.7,0.1-11.3-0.3-16.9-1.8c-9.9-2.7-16.9-11.4-17.3-21.7  c-0.2-3.7,0.3-7.3,1.9-10.7C266.7,449.5,272.3,446.6,278.5,449.4z"></path>
    <path class="st0" d="M725.4,166.2c-1.8,1.3-3.5,2.6-5.5,4.1c-0.2-2.5-0.4-4.6-0.7-6.7c-0.7-4.6-2.2-8.8-4.8-12.7  c-1.5-2.2-3.3-4.1-5.9-5.1c-0.7-0.3-1.6-0.4-2.5-0.3c4.3,3.1,7.1,6.9,7.1,12.8c-0.5-0.7-0.8-1.1-1-1.5c-1.6-2.8-3.7-5.2-6.1-7.3  c-2.9-2.6-6-5-9-7.5c-0.8-0.7-1.7-1.4-2.9-2.4c1-0.1,1.6-0.3,2.2-0.3c5.9-0.2,11.8,0.1,17.6,1.6c10.2,2.7,17.2,11.4,17.5,22  c0.1,3.3-0.2,6.6-1.5,9.6c-2.4,5.5-8.5,7.8-14.1,5.1c4.3-2.9,9-5.3,10-11C725.7,166.4,725.5,166.3,725.4,166.2z"></path>
    <path class="st0" d="M768,148.8c-0.3-2.3-0.7-4.3-0.8-6.3c-0.1-1.3,0.5-2.3,1.7-2.9c1.3-0.6,2.2-0.4,2.6,1c0.7,2.4,1.1,4.8,1.7,7.2  c0.3,1.3,0.5,2.7,0.7,4c0.6,3.9,2.5,7,5,9.9c3.7,4.1,8.2,7.1,13.1,9.6c0.8,0.4,1.6,0.8,2.3,1.2c-1.4,3.9-4.6,6.2-8.8,6.4  c-2.7,0.1-5.2-0.4-7.8-1.3c-6.9-2.4-12.9-6.4-18.2-11.3c-0.2-0.2-0.4-0.5-0.7-0.9c3.4-1.2,6.9-0.5,10.7-1.3  c-1.9-1.4-3.5-2.6-5.1-3.8c0.1-0.2,0.1-0.3,0.2-0.5c2,0.5,4.1,0.9,6.1,1.4c0.1-0.1,0.2-0.2,0.2-0.3c-0.5-0.4-0.9-0.9-1.4-1.3  c-1.8-1.7-3.7-3.3-5.5-5c-1.2-1.2-1.8-2.8-1.4-4.6c0.4-2,1.6-2.7,3.5-2.1C766.8,148.2,767.4,148.5,768,148.8z"></path>
    <path class="st0" d="M226,148.8c1-0.4,1.6-0.7,2.2-0.9c1.8-0.5,2.9,0.2,3.3,2c0.4,1.8-0.1,3.4-1.4,4.6c-1.8,1.7-3.6,3.4-5.5,5  c-0.6,0.6-1.2,1.1-1.7,1.9c2.2-0.6,4.4-1.1,6.5-1.7c0.1,0.2,0.2,0.4,0.2,0.5c-1.6,1.2-3.2,2.3-5.2,3.9c3.9,0.3,7.2,0.6,10.9,0.9  c-0.5,0.7-0.7,1.2-1.1,1.5c-5.1,4.5-10.8,8.3-17.2,10.7c-3.5,1.3-7,2.2-10.8,1.2c-3.2-0.8-5.2-2.8-6.6-5.9c0.8-0.4,1.5-0.8,2.2-1.1  c3.5-1.7,6.7-3.7,9.7-6.1c5.3-4.4,8.6-9.8,9.3-16.7c0.3-2.5,0.9-4.9,1.5-7.3c0.2-0.9,0.4-2,1.7-2c1.2,0,2.6,0.9,2.7,2.2  c0.2,1.5,0,3-0.2,4.5C226.6,146.9,226.3,147.7,226,148.8z"></path>
    <path class="st0" d="M768.3,478c-1,0.5-1.5,0.8-2.1,1c-1.9,0.7-3,0.1-3.5-1.9c-0.5-1.8,0.1-3.4,1.3-4.6c1.7-1.7,3.5-3.3,5.3-4.9  c0.8-0.7,1.5-1.3,2.1-2.2c-2.2,0.6-4.4,1.2-6.5,1.8c-0.1-0.2-0.2-0.4-0.3-0.6c1.5-1.2,3-2.3,4.9-3.8c-3.7-0.3-7.1-0.6-10.8-1  c0.5-0.7,0.7-1.1,1.1-1.4c4.9-4.3,10.2-8,16.3-10.4c3.5-1.4,7.1-2.5,11-1.7c3.5,0.7,5.9,2.6,7.5,6c-0.7,0.4-1.3,0.7-1.8,1  c-2.8,1.6-5.6,3.1-8.2,4.9c-6.4,4.5-10.4,10.5-11.2,18.4c-0.2,2.3-0.9,4.5-1.4,6.8c-0.2,1-0.4,2.1-1.8,2.1c-1.3,0-2.5-0.9-2.7-2.3  c-0.1-1.4,0-2.9,0.2-4.3C767.6,480.2,768,479.4,768.3,478z"></path>
    <path class="st0" d="M199.9,454.5c1.6-4.5,6-7.1,10.9-6.3c2.9,0.5,5.8,1.2,8.5,2.4c5.6,2.3,10.5,5.7,15,9.8c0.3,0.3,0.6,0.7,1.2,1.3  c-3.6,0.9-7,0.9-10.9,1.1c2,1.5,3.5,2.6,5.5,4.1c-2.9,0.3-5-0.8-7.3-1.2c0.6,0.5,1.2,1.1,1.8,1.6c1.8,1.6,3.7,3.2,5.5,5  c1.2,1.1,1.9,2.6,1.7,4.3c-0.2,2.5-1.7,3.4-4,2.5c-0.5-0.2-1-0.4-1.7-0.8c0.3,1.1,0.6,1.8,0.7,2.6c0.2,1.4,0.4,2.9,0.3,4.3  c-0.1,0.8-0.8,1.8-1.5,2.3c-1.2,0.9-2.4,0.5-2.8-1c-0.6-2.3-1.1-4.7-1.6-7c-0.2-1.1-0.5-2.2-0.6-3.3c-0.5-4.5-2.7-8.1-5.7-11.4  c-3.6-3.9-7.9-6.7-12.6-9C201.4,455.3,200.6,454.9,199.9,454.5z"></path>
    <path class="st0" d="M801.8,144.6c-1.9-1.3-3.1-2.2-4.5-3.1c-1.5-0.9-3-1.9-4.6-2.6c-1.8-0.7-3.7-0.7-5.6,1.1c1.1,0,1.7,0,2.4,0  c1.5,0,2.9,0.2,4,1.3c1.2,1.2,1.2,2.4,0,3.5c-1.2,1.1-2.4,2.1-3.6,3.2c-2.5,2.2-2.8,4.9-2,7.9c0.7,2.6,2.4,4.5,4.4,6.1  c4.3,3.4,9.3,5.2,14.6,6.5c2.5,0.6,5,0.9,8,1.4c-0.9,0.2-1.6,0.4-2.2,0.5c-8.5,1.6-16.6,0.6-24.2-3.4c-5.8-3-9.8-7.6-11.1-14.3  c-2-10.6,6.5-18.8,14-20.1c4.6-0.8,8.3,1.4,9.9,5.7c0.4,1,0.7,2.1,0.8,3.2C802.4,142.4,802.1,143.2,801.8,144.6z"></path>
    <path class="st0" d="M179.2,169.7c6-0.4,11.4-1.7,16.6-4c3-1.3,5.8-3,8.1-5.5c1.9-2.1,3-4.5,2.9-7.4c-0.1-1.6-0.5-3-1.7-4.1  c-1.3-1.2-2.6-2.3-3.9-3.5c-1.8-1.7-1.6-3.4,0.6-4.5c0.9-0.4,2-0.5,3-0.7c0.6-0.1,1.3,0,2,0.1c-0.3-1.3-1.3-1.4-2.2-1.5  c-1.6-0.3-3,0.1-4.4,0.8c-1.6,1-3.2,2.1-4.8,3.1c-0.8,0.5-1.6,1-2.7,1.8c-0.3-0.9-0.8-1.7-0.7-2.3c0.4-2.6,1-5,2.9-7  c2.4-2.5,5.4-3,8.6-2.3c10.9,2.4,16.6,14.2,11.9,24.4c-1.9,4.1-5,7.2-8.9,9.4c-6.6,3.7-13.7,5-21.3,4.3  C183.2,170.8,181.3,170.7,179.2,169.7z"></path>
    <path class="st0" d="M207.1,487c-1.6-0.1-3-0.1-4.4-0.3c-0.8-0.2-1.6-0.7-2.2-1.3c-1-1-1-2.1,0.1-3.1c1.1-1.1,2.4-2.2,3.6-3.2  c2.8-2.3,3-5.3,2-8.5c-0.8-2.5-2.6-4.4-4.7-5.9c-4.4-3.3-9.5-5.1-14.9-6.3c-2.3-0.5-4.7-0.8-7.6-1.3c1.5-0.3,2.5-0.6,3.5-0.7  c7.3-0.9,14.4-0.4,21.2,2.6c3.9,1.7,7.3,4,9.8,7.5c7.8,11,2.4,23.4-8.4,27.2c-6.8,2.4-11.9-0.6-13.1-8.6c-0.1-0.7,0.3-1.4,0.6-2.5  c1.3,0.8,2.2,1.4,3.1,2c1.8,1.1,3.5,2.3,5.3,3.2c1.6,0.8,3.4,0.9,5.1,0C206.4,487.7,206.6,487.3,207.1,487z"></path>
    <path class="st0" d="M801.8,482.6c0.3,1.1,0.7,1.8,0.6,2.4c-0.4,2.6-1.1,5.2-3.1,7.1c-2.6,2.6-5.9,2.8-9.2,1.9  c-10.5-3-18-16-8.7-28.1c3.4-4.5,8.3-6.9,13.6-8.5c6.3-1.8,12.6-1.8,19-0.6c0.2,0,0.4,0.2,1,0.4c-1.4,0.2-2.5,0.4-3.6,0.5  c-1.2,0.2-2.4,0.4-3.5,0.6c-4.8,1-9.5,2.5-13.5,5.3c-1.9,1.3-3.5,3-5,4.7c-1.2,1.4-1.7,3.2-1.7,5.1c-0.1,2.1,0.5,3.8,2.1,5.1  c1.2,1.1,2.4,2.1,3.6,3.2c1.7,1.6,1.6,3.3-0.5,4.4c-1.1,0.5-2.4,0.6-3.7,0.8c-0.5,0.1-1.1-0.1-1.9-0.3c0.5,1.1,1.3,1.4,2.1,1.6  c1.6,0.4,3.2,0.2,4.6-0.6c1.7-0.9,3.2-2,4.9-3.1C799.6,484,800.5,483.4,801.8,482.6z"></path>
    <path class="st0" d="M515.7,561.1c-1,1.4-2.1,2.8-3.2,4.4c-2-3.3-1.4-6.7-1.7-10.5c-1.2,1.5-2.2,2.7-3.5,4.3  c-0.5-6.3-1-11.9-1.4-17.6c-0.2-0.1-0.3-0.1-0.5-0.2c-0.9,1.1-1.8,2.1-2.7,3.2c-1.7-4.4-0.9-23.8,1.5-30.3c0.3,3,0.5,6,0.8,8.9  c0.4,4.5,1,8.9,2.4,13.2c2.1,6.1,5.2,11.4,10.7,15.2c2.2,1.5,4.2,3.2,6.1,5c3.3,3.2,3.4,4.7,0.9,8.5c-0.8,1.2-1.7,2.4-2.3,3.7  c-0.6,1.2-0.9,2.5-1.4,3.9C517.9,569.6,516.2,565.8,515.7,561.1z"></path>
    <path class="st0" d="M507.7,68.4c0.9,1.1,1.8,2.2,3,3.7c0.3-3.8-0.3-7.3,1.7-10.6c1.2,1.6,2.2,2.9,3.6,4.8c0.2-5.1,1.8-9.1,5.6-12.4  c0.2,3.1,1.8,5.3,3.3,7.6c2.8,4.1,2.7,5.7-1,9.1c-1.8,1.6-3.6,3.2-5.6,4.5c-5.7,3.9-9,9.4-11.1,15.8c-1.3,4.1-1.9,8.2-2.3,12.5  c-0.2,2.5-0.4,4.9-0.6,7.4c-0.1,0.6-0.2,1.2-0.4,2c-2.3-5.3-2.9-24-1.6-30.6c1.1,1.1,2.1,2.2,3.4,3.7c0.3-3.4,0.5-6.2,0.7-9  c0.2-2.8,0.5-5.5,0.7-8.3C507.4,68.5,507.5,68.4,507.7,68.4z"></path>
    <path class="st0" d="M482.6,565.4c-0.6-0.4-1.3-0.8-1.8-1.4c-0.8-0.9-1.5-1.9-2.2-2.8c0,0-0.1,0-0.4,0c0,4.6-1.8,8.4-5.4,11.8  c-0.4-3.5-2.3-5.9-4-8.5c-1.9-2.9-1.8-4.6,0.7-7c1.9-1.9,3.9-3.6,6-5.1c7.6-5.2,11.3-12.7,12.9-21.4c0.7-4.1,1-8.2,1.5-12.4  c0.2-1.5,0.3-3,0.5-4.8c2.2,6,3.2,26.1,1.5,30.9c-1-1.1-1.9-2.2-3.2-3.7c-0.5,6.3-1,11.9-1.5,18.2c-1.3-1.6-2.2-2.8-3.5-4.3  c-0.1,0.8-0.2,1.2-0.2,1.5c0.1,2.8,0,5.6-0.9,8.3C482.3,564.9,482.5,565.2,482.6,565.4L482.6,565.4z"></path>
    <path class="st0" d="M490.1,112.9c-0.3-3.3-0.6-6.7-0.9-10c-0.4-4.7-1.1-9.4-2.8-13.8c-2.1-5.5-5.1-10.2-10.1-13.7  c-2.4-1.6-4.6-3.5-6.6-5.5c-2.8-2.7-2.9-4.5-0.8-7.8c0.8-1.2,1.7-2.4,2.3-3.6c0.6-1.3,1-2.7,1.6-4.3c3.5,3.1,5.2,6.9,5.3,12.2  c1.4-1.8,2.5-3.2,3.7-4.8c1.9,3.3,1.4,6.7,1.5,10.2c1.7-0.8,2-2.7,3.6-3.7c0.5,5.9,0.9,11.6,1.4,17.3c0.2,0,0.3,0.1,0.5,0.1  c0.9-1.1,1.8-2.1,3.1-3.6C492.8,92.6,492.8,102.8,490.1,112.9z"></path>
    <path class="st0" d="M484,470.9c0.3,0.4,0.5,0.6,0.6,0.8c2.9,10,5.2,20.1,4.9,30.6c-0.1,3.4-0.6,6.7-1.9,9.8c-0.7,1.5-1.4,3-3.1,4.3  c-0.1-2.1,0-3.9-0.2-5.6c-0.1-1.7-0.5-3.4-0.7-5.2c-2.7,0.5-2.8,0.5-2.9,2.9c-0.4,6-2.9,11.1-6.8,15.5c-0.2,0.2-0.4,0.5-0.7,0.7  c-0.1,0.1-0.3,0.1-0.6,0.2c-0.2-2-0.4-3.9-0.7-6.3c-1.3,1.5-2.3,2.7-3.4,3.8c-1.2,1.1-2.5,2.2-3.9,3.1c-1.3,0.8-2.9,1.4-4.7,2.2  c0.3-0.9,0.3-1.5,0.5-1.9c1.8-2.5,3.6-5.1,5.7-7.4c2.6-2.9,5.6-5.5,8.3-8.3c4-4.1,7.3-8.6,8.4-14.3c0.7-3.2,1-6.5,1.1-9.7  c0.2-4.2,0-8.5,0-12.7C483.9,472.7,484,471.9,484,470.9z"></path>
    <path class="st0" d="M483.9,155.7c0-2.2,0-4.5,0-6.7c-0.1-4.3-0.1-8.6-0.3-12.9c-0.3-6.5-2.8-12.3-7.2-17.1c-2.7-3-5.6-5.7-8.4-8.6  c-2.2-2.3-4.3-4.7-6.3-7.2c-0.8-1-1.3-2.3-2.2-3.9c5.6,1.3,9,4.6,12.5,8.5c0.2-1.9,0.5-3.8,0.7-5.9c0.7,0.7,1.2,1.1,1.7,1.6  c3.7,4.2,6,9,6.3,14.7c0.1,2.5,0.2,2.5,2.9,3.2c0.7-3.6,1.2-7.2,0.7-11.3c1.5,1.2,2.3,2.4,3,3.7c1.6,3.2,2.2,6.7,2.3,10.2  c0.4,9.1-1.3,18-3.6,26.7c-0.4,1.7-1,3.3-1.4,5C484.3,155.8,484.1,155.8,483.9,155.7z"></path>
    <path class="st0" d="M522.3,518.5c-0.3,2.4-0.5,4.3-0.7,6.4c-0.6-0.5-1-0.8-1.4-1.2c-3.9-4.4-6.4-9.3-6.6-15.3  c-0.1-2.3-0.1-2.3-2.9-3.1c-0.7,3.6-1.3,7.2-0.6,11.2c-0.6-0.5-1.1-0.7-1.4-1c-2-2.4-3.2-5.2-3.5-8.3c-0.4-4-0.7-8-0.4-11.9  c0.5-7.8,2.3-15.5,4.6-23c0.1-0.4,0.3-0.8,0.9-1.2c0,0.8,0.1,1.7,0.1,2.5c0,3.8-0.2,7.5-0.1,11.3c0.1,2.9,0.4,5.9,0.7,8.8  c0.7,5.1,2.9,9.6,6.3,13.5c2.4,2.8,5.1,5.3,7.6,8c2.4,2.6,4.8,5.1,7.1,7.8c1,1.2,1.6,2.7,2.3,4.2  C529.1,526.3,525.7,522.9,522.3,518.5z"></path>
    <path class="st0" d="M509.5,155.8c-1.1-4.5-2.2-9-3.2-13.5c-1.3-6-2-12-1.7-18.1c0.1-3.2,0.6-6.4,1.9-9.3c0.7-1.7,1.6-3.2,3.4-4.7  c-0.4,4-0.1,7.6,0.7,11.1c2.7-0.5,2.8-0.5,2.9-3c0.3-6,2.9-11,6.8-15.4c0.2-0.2,0.3-0.3,0.5-0.5c0.1-0.1,0.3-0.1,0.6-0.2  c0.2,2,0.5,3.9,0.8,6.4c3.2-4.5,6.8-7.8,12.2-9.2c-0.5,1.1-0.7,1.9-1.2,2.5c-1.8,2.4-3.6,4.9-5.7,7.1c-2.2,2.4-4.6,4.7-7,6.9  c-7.2,6.7-10.5,15.1-10.5,24.8c0,3.9,0.1,7.8,0.1,11.7c0,1.1,0,2.2,0,3.3C510.1,155.7,509.8,155.7,509.5,155.8z"></path>
    <path class="st0" d="M854.7,175.4c-1.5-2.1-2.7-3.9-4.7-5c-2.8,6.6-8.4,9.5-14.9,7.6c2.6-5,4.9-10.1,8.5-15.1  c-2.4,0.5-4.3,1.3-6.5,0.6c3.5-7,7.3-13.7,7.9-21.5C850.8,145.7,855.6,162,854.7,175.4z M848.6,150.5c-0.2,0.4-0.3,0.4-0.3,0.5  c0,0.3,0.1,0.6,0.2,0.9c1.5,3.5,1.3,7.1,0.4,10.8c-0.1,0.6-0.5,1.2,0.6,1.7c1.3-3.3,1.6-6.6,1-10C850.2,153,850.2,151.4,848.6,150.5  z"></path>
    <path class="st0" d="M144.2,170.3c-2.1,1.2-3.3,3-4.8,5.1c-0.5-12.5,1.7-23.7,9.5-33.9c1,8.3,4.6,15,8.1,22c-2.2,0.7-4,0.1-6.2-0.6  c1.6,2.8,3,5.2,4.4,7.6c1.3,2.4,2.5,4.9,3.8,7.4C153.3,180.2,146.4,176.7,144.2,170.3z M145.6,164.2c-0.3-1.5-0.6-3-0.8-4.6  c-0.1-1.5,0.1-3,0.1-4.5c0-1.5,1.3-2.8,0.8-4.5C142.9,153,142.7,161.5,145.6,164.2z"></path>
    <path class="st0" d="M849.9,457c1.2-1.1,2-1.8,2.8-2.6c0.7-0.7,1.3-1.6,2.1-2.7c0.5,12.3-1.6,23.5-9.3,33.2  c-1.1-7.8-4.8-14.5-8.3-21.4c2.2-0.5,4-0.1,6.3,0.8c-1.7-2.9-3.1-5.3-4.4-7.7c-1.3-2.4-2.6-4.9-4-7.7c3.3-0.9,6.3-0.4,9.2,0.8  C847.2,450.9,849.2,453.2,849.9,457z M849.5,462.7c-0.3,0.1-0.6,0.1-0.8,0.2c0.3,1.5,0.6,3.1,0.8,4.6c0.1,1.5-0.1,3-0.1,4.5  c0,1.5-1.3,2.8-0.7,4.7c1.7-1.9,2-3.9,2.1-5.9C850.9,468,850.7,465.2,849.5,462.7z"></path>
    <path class="st0" d="M139.6,452c1.3,1.8,2.7,3.4,4.9,4.8c0.6-3.7,2.7-6,5.8-7.2c2.8-1.1,5.6-1.5,9-0.7c-2.9,5.2-5,10.4-8.6,15  c2.2-0.3,4.2-0.6,6.6-0.9c-3.8,7.4-7.5,14.2-8.3,22.6C141.1,475.4,139,464.1,139.6,452z M145.5,462.8c-0.1,0-0.3-0.1-0.4-0.1  c-0.2,0.3-0.6,0.5-0.6,0.8c-0.3,1.4-0.7,2.8-0.8,4.2c-0.3,2.6,0,5.1,0.9,7.5c0.2,0.5,0.4,1.3,1.3,1c-0.4-2.3-1-4.5-1.1-6.7  C144.7,467.3,145.2,465.1,145.5,462.8z"></path>
    <path class="st0" d="M545.9,514.8c-2.6,0.4-4.7-0.2-6.6-1.1c-2.2-1-4.5-2.2-6.4-3.7c-8-6.2-13.2-14.3-16.9-23.7  c0.3,0.5,0.7,0.9,1,1.4c2.2,3.1,5.1,5.5,8.5,7.3c4,2.2,8.4,3.5,12.7,4.8c4.5,1.4,9,2.8,13.4,4.3c2.3,0.8,4.6,1.8,6.6,3.5  c-1.7,2.5-4.1,3.6-6.8,4.2c-2.7,0.6-5.4,0-8-0.7c-0.1,0.1-0.2,0.3-0.3,0.4C544,512.5,544.9,513.5,545.9,514.8z"></path>
    <path class="st0" d="M515.8,140.8c3.3-8.4,8-15.8,14.7-21.9c3.5-3.2,7.4-5.8,12.3-6.6c0.9-0.2,1.8-0.2,3.2-0.3  c-1.1,1.4-1.9,2.4-3,3.8c0.9-0.1,1.4-0.1,1.9-0.2c2.9-0.7,5.9-0.8,8.7,0.4c1.9,0.7,3.6,1.7,4.8,3.7c-1.2,0.7-2.3,1.4-3.4,1.9  c-4.7,2.3-9.7,3.7-14.7,5.2c-2.9,0.9-5.8,1.7-8.7,2.7C524,132.1,520.7,134.5,515.8,140.8z"></path>
    <path class="st0" d="M448.5,112.2c1.9-0.4,3.5,0.1,5.1,0.6c3.2,0.9,6,2.6,8.5,4.8c7.4,6.1,12.5,13.8,16.2,22.6c0.1,0.1,0,0.3,0,0.5  c-0.2-0.2-0.4-0.3-0.5-0.5c-3-4.6-7.2-7.7-12.2-9.6c-4.9-1.9-10-3.2-15-4.9c-3.8-1.3-7.6-2.8-11.4-4.3c-1.1-0.4-2-1.2-3.3-1.9  c4.2-5.1,9.4-5.1,15.4-3.6C450.1,114.4,449.4,113.4,448.5,112.2z"></path>
    <path class="st0" d="M448.3,515c1.1-1.5,1.8-2.5,2.9-4c-6,1.7-11.2,1.6-15.6-3.4c0.9-0.6,1.5-1.1,2.3-1.4c3.8-1.5,7.5-3.1,11.4-4.4  c3.2-1.1,6.6-1.9,9.9-2.9c7.2-2.2,14-5.1,18.7-11.6c-0.1,0.5-0.2,1-0.4,1.4c-3.3,7.3-7.7,13.8-13.6,19.3c-3.4,3.2-7.3,5.8-11.9,6.8  C451,514.9,449.9,514.9,448.3,515z"></path>
    <path class="st0" d="M849.4,137c-0.2,1.1-0.4,1.7-0.5,2.5c-1.1,0-2.1,0-3.4,0c0-1.1,0-2.1,0-3.3c0.7-0.2,1.4-0.4,2.5-0.7  c-4.8-6.2-7.4-12.9-7.2-21.1c0.6,0.6,1.1,0.9,1.3,1.3c0.8,1.5,1.6,3,2.3,4.5c0.9,1.8,1.7,3.6,2.6,5.4c2.7,5.1,7.1,7.6,12.8,8.1  c1.7,0.1,3.4,0.1,5,0.1c0.8,0,1.6,0,2.5,0c0.1,3.6-1.5,6.2-3.5,8.7c2.9,1.3,4.9,0.1,8.3-5c1.6,2.5,2,5.1,1.3,7.8  c-0.5,1.9-1.9,3.1-3.8,3.6c-2.9,0.9-5.6,0.4-8-1.2c-2.9-2-5.7-4.4-8.5-6.6C851.9,139.8,850.9,138.5,849.4,137z"></path>
    <path class="st0" d="M152.9,512.6c-0.7-1.1-1.4-2.2-2-3.4c-1-1.9-1.8-3.9-2.7-5.9c-3-6.7-8.3-9.9-15.5-10c-1.8,0-3.7,0-5.7,0  c-0.2-3.6,1.5-6.2,3.5-8.7c-3.3-1.1-5.2,0-8.2,4.9c-1.7-1.9-2.4-5.5-1.4-7.9c1.1-2.7,3.3-3.5,5.9-3.7c2.3-0.1,4.4,0.6,6.4,1.8  c3.6,2.2,6.6,5,9.5,8c0.6,0.6,1.1,1.3,2,2.4c0.4-1.2,0.5-1.9,0.7-2.6c1,0,2,0,3.3,0c0.1,1.2,0.1,2.2,0.2,3.4  c-0.9,0.3-1.6,0.5-2.6,0.8c4.9,6.1,7.4,13,7.2,20.7C153.3,512.4,153.1,512.5,152.9,512.6z"></path>
    <path class="st0" d="M122.1,137.3c3.6,5.1,4.9,6,8.3,5.2c-1.7-2.7-3.7-5.2-3.5-8.9c1,0,1.9,0,2.9,0c2.3-0.1,4.6-0.1,6.9-0.5  c4.6-0.7,8.1-3.3,10.3-7.4c1.1-2.1,2.1-4.3,3.1-6.5c0.8-1.7,1.8-3.3,2.9-4.9c0.7,2.5,0.2,4.9-0.3,7.3c-0.9,4.7-2.9,8.9-5.9,12.7  c-3.4,4.3-7.2,8.2-11.6,11.4c-1.9,1.4-3.9,2.8-6.4,3.1c-1.5,0.2-3,0.1-4.5-0.3c-2.1-0.5-3.4-2.1-3.8-4.2  C120.3,141.9,120.6,139.5,122.1,137.3z"></path>
    <path class="st0" d="M863.6,484.5c2.2,2.7,3.8,5.3,3.7,8.8c-1.1,0-1.9,0-2.8,0c-1.7,0-3.4,0-5,0.1c-6.1,0.6-10.5,3.6-13.1,9.1  c-1,2.1-1.9,4.2-2.9,6.3c-0.6,1.3-1.4,2.5-2.1,3.7c-0.2,0-0.4-0.1-0.6-0.1c0-0.8-0.1-1.6,0-2.4c0.5-6.3,2.4-12,6.3-17  c3.8-4.8,8-9.2,13-12.6c2.6-1.8,5.3-2.9,8.6-2.3c3.2,0.6,4.9,2.5,5.1,5.7c0.1,2.1-0.3,4.1-1.6,5.9  C868.5,484.5,867.4,483.7,863.6,484.5z"></path>
    <path class="st0" d="M481.1,489.4c-0.9,4.8-2.9,9.2-5.8,13c-2.1,2.8-4.4,5.5-6.9,7.9c-6.1,5.8-12.3,11.3-18.8,17.2  c0.5-2.4,1-4.5,1.5-6.9c-6.7,0.4-13.2,0-19.5-2.2c1.9-4.8,8.6-6.9,15.8-4.7c-0.9,1-1.8,2-3,3.3c1.2,0.3,2,0.5,2.8,0.6  c4.2,0.4,8.1-0.5,11.8-2.5c3.5-2,6.5-4.6,9.2-7.6c4.5-4.8,8.1-10.3,11.5-15.9C480.1,490.8,480.6,490.1,481.1,489.4z"></path>
    <path class="st0" d="M544.6,99.8c-0.5,2.1-0.9,4.2-1.4,6.6c6.8-0.4,13.2,0,19.5,2.2c-1.5,4.6-8.4,6.7-15.9,4.9c1-1.1,1.9-2.1,3-3.3  c-2.6-1.3-5.1-1-7.6-0.6c-3.9,0.6-7.3,2.4-10.4,4.7c-4.2,3.2-7.6,7.1-10.7,11.3c-2.4,3.3-4.5,6.8-6.7,10.2c-0.4,0.6-0.8,1.3-1.4,1.8  c0.8-3.9,2.4-7.4,4.5-10.7c2.6-4.2,5.8-7.8,9.4-11.2c5.7-5.3,11.4-10.5,17.2-15.7C544.1,99.9,544.3,99.9,544.6,99.8z"></path>
    <path class="st0" d="M544.7,527.3c-0.5-0.3-0.8-0.5-1-0.6c-5.2-4.7-10.5-9.4-15.6-14.2c-3.2-3.1-6.2-6.4-9-9.9  c-3.1-3.8-5-8.3-6.1-13.2c0.4,0.5,0.7,1.1,1.1,1.6c3.3,4.7,6.4,9.6,9.9,14.2c2.7,3.6,6,6.6,9.8,9.1c4,2.6,8.4,3.9,13.2,3.4  c0.6-0.1,1.1-0.1,1.7-0.2c0.3-0.1,0.6-0.3,1-0.5c-1-1.1-1.8-2-2.7-3c5.6-2.2,14-0.5,15.7,4.6c-6.2,2.3-12.7,2.6-19.5,2.2  C543.7,522.9,544.2,525,544.7,527.3z"></path>
    <path class="st0" d="M481.1,137.7c-0.5-0.7-0.9-1.5-1.4-2.2c-3.2-4.7-6.4-9.4-9.8-13.9c-2.7-3.5-5.9-6.5-9.7-8.8  c-3.8-2.4-7.9-3.7-12.5-3.4c-1,0.1-2,0.4-3.4,0.6c1.3,1.3,2.2,2.2,3.1,3.2c-5.9,2.4-13.1,0.5-15.8-4.4c3-1.4,6.2-1.9,9.4-2.1  c3.2-0.2,6.5-0.3,10-0.4c-0.5-2-0.9-4.1-1.4-6.5c0.5,0.3,0.8,0.4,1,0.6c5,4.6,10.2,9,15.1,13.7c3.3,3.2,6.5,6.6,9.4,10.2  c2.9,3.5,4.8,7.7,6.1,12.1c0.1,0.4,0.2,0.7,0.2,1.1C481.3,137.6,481.2,137.6,481.1,137.7z"></path>
    <path class="st0" d="M516.7,586c-1-0.6-1.6-1.2-2.3-1.5c-7.4-2.5-10.9-8.1-11.7-15.5c-0.6-5.8-0.6-11.6-0.6-17.4  c0.9,4.1,3.2,7.3,6,10.2c1.7,1.8,3.3,3.7,4.8,5.6c2.2,2.8,3.5,6.1,3.7,9.7C516.9,580,516.7,582.9,516.7,586z M510.2,573.8  c0-0.5,0.1-0.8,0-0.9c-3-4.7-5.1-9.7-6.2-15.2c0-0.3-0.5-0.4-0.9-0.7C502.6,561.3,507.2,572.3,510.2,573.8z"></path>
    <path class="st0" d="M502.2,75.6c0.1-6.2-0.5-12.2,0.5-18c0.4-2,0.9-4.1,1.6-6c1.6-4.1,4.5-6.9,8.5-8.6c1.2-0.5,2.3-1,3.5-1.6  c1.2,7.8,0.2,14.9-5.6,20.8c-0.8,0.8-1.5,1.6-2.3,2.5C504.7,68.9,503.9,70.1,502.2,75.6z M503.3,69.8c0.1,0,0.2,0,0.2,0  c1.8-5.6,3.7-11.1,6.7-16.1c0,0,0-0.1-0.1-0.2c0-0.1-0.1-0.1-0.2-0.2c-1.6,0.8-3.3,3.5-5.2,8.7C502.9,66.8,502.6,68.2,503.3,69.8z"></path>
    <path class="st0" d="M477.7,41.4c1.3,0.6,2.4,1.1,3.6,1.6c6.2,2.7,9.1,7.7,10.2,14.1c1,5.9,0.6,11.8,0.4,17.7  c-1.1-5-4.6-8.4-7.8-11.9c-0.9-1-1.8-2-2.6-3.1c-2.9-3.7-4.1-8-4.1-12.7C477.4,45.2,477.6,43.3,477.7,41.4z M490.6,69.9  c0.3-0.1,0.5-0.2,0.8-0.3c-0.6-5.4-2.7-10.2-5.5-14.9c-0.4-0.7-0.6-1.7-2.1-1.4c1.4,2.8,2.9,5.4,4,8.1  C488.9,64.2,489.7,67.1,490.6,69.9z"></path>
    <path class="st0" d="M482.5,565.4c4-3.8,8-7.6,9.4-13.3c0,0.6,0.1,1.2,0.1,1.9c0,0.6,0,1.3,0,1.9c-0.2,4.6-0.3,9.2-0.7,13.8  c-0.2,1.9-0.9,3.9-1.6,5.7c-1.7,4.1-4.7,7-8.8,8.6c-1,0.4-2,0.9-3.2,1.4c-0.6-6.2-0.8-12.2,3.1-17.6  C481.5,567.1,482,566.2,482.5,565.4C482.6,565.4,482.5,565.4,482.5,565.4z M491.1,557.2c-0.2-0.1-0.4-0.1-0.6-0.2  c-0.5,1.9-1,3.8-1.6,5.6c-0.7,2-1.5,3.9-2.4,5.7c-0.8,1.7-1.8,3.4-2.7,5.1c0.2,0.1,0.3,0.2,0.5,0.3c1.6-0.7,2.1-2.4,2.8-3.7  C490,565,491.7,559.3,491.1,557.2z"></path>
    <path class="st0" d="M553.7,572.7c-0.9-1.5-1.9-2.9-2.6-4.5c-2.5-6.2-2.3-12.3,0.6-18.3c3.1-6.3,8.6-7.9,14.9-6.4  c3,0.7,4.3,2.5,4,4.8c-0.4,2.8-2.3,4.5-5.3,4.5c-1,0-2.1-0.2-3.1-0.3c-4.6-0.5-7.3,1.2-8.8,5.6c-1.4,4.2-1.2,8.3,0.1,12.5  c0.2,0.6,0.4,1.2,0.6,1.8C554,572.5,553.8,572.6,553.7,572.7z"></path>
    <path class="st0" d="M440,54.5c4,4.2,5.1,9.2,4.7,14.6c-0.3,3.6-1.3,7.1-3.5,10c-3.3,4.6-10,6.2-15,3.7c-1.6-0.8-2.8-1.9-2.7-3.9  c0.1-2,1.6-4.1,3.4-4.5c1-0.3,2-0.3,3.1-0.3c1.2,0,2.4,0.2,3.6,0.2c3.3,0.1,5.5-1.5,6.7-4.4c2-4.6,1.8-9.2,0.4-13.8  C440.5,55.7,440.2,55.1,440,54.5z"></path>
    <path class="st0" d="M440.4,572c0.4-1.8,0.8-3.5,1.1-5.3c0.5-3.1,0.2-6.1-0.9-9c-1.5-4-4-5.6-8.3-5.2c-1.2,0.1-2.4,0.3-3.6,0.3  c-2.8,0-4.8-1.9-5.2-4.6c-0.2-1.6,0.6-2.9,2.2-3.9c3.3-1.9,10.7-2.2,14.6,2.4c3.6,4.3,4.7,9.3,4.4,14.8c-0.3,3.5-1.2,6.9-3.3,9.9  c-0.2,0.3-0.5,0.6-0.7,0.9C440.6,572.1,440.5,572.1,440.4,572z"></path>
    <path class="st0" d="M554,54.3c-0.5,2.3-1,4.4-1.4,6.6c-0.5,3.1,0,6.1,1.2,8.9c1.4,3.3,3.4,4.7,7,4.6c1.3,0,2.5-0.2,3.8-0.3  c2.8-0.2,4.5,0.8,5.5,3.3c1,2.3,0.3,4.1-1.8,5.3c-3.2,1.8-10.7,2.1-14.4-2.3c-3.6-4.2-4.8-9.1-4.6-14.5c0.2-4,1.3-7.7,3.9-10.9  C553.5,54.8,553.7,54.6,554,54.3z"></path>
    <path class="st0" d="M509.3,94.5c1.8-5.9,4.6-11.2,8.9-15.6c1.3-1.4,2.8-2.6,4.3-3.8c4.3-3.3,9.1-4.5,14.4-3.1  c2.8,0.7,5.5,1.7,8.2,2.7c1,0.4,2,1.1,2.8,1.8c2.7,2.2,2.4,4.8-0.8,6.4c-1,0.5-1.9,0.3-2.8,0c-1.9-0.8-3.7-1.8-5.7-2.5  c-3-1.2-5.9-2.3-9-3.2c-2.8-0.9-5.4-0.2-7.7,1.5c-1.8,1.4-3.6,2.9-5.1,4.7c-2.3,2.9-4.3,6.1-6.4,9.2  C510.1,93.2,509.7,93.9,509.3,94.5z"></path>
    <path class="st0" d="M485.1,94.9c-0.9-1.4-1.4-2.4-2.1-3.4c-1.9-2.7-3.7-5.4-5.6-8c-1-1.3-2.3-2.5-3.5-3.6c-3.3-3-7.1-3.9-11.3-2.4  c-2.8,1-5.5,2.2-8.2,3.3c-1.6,0.7-3.2,1.5-4.8,2.1c-1.6,0.6-3.7-0.4-4.6-2c-0.7-1.3-0.4-2.8,1-4c0.9-0.8,2-1.6,3.1-2.2  c4.1-2.1,8.5-3.2,13.1-3.2c2,0,3.8,0.4,5.5,1.3c4.3,2,7.7,5.1,10.6,8.8c2.9,3.7,5,7.8,6.7,12.2C485.1,94,485.1,94.2,485.1,94.9z"></path>
    <path class="st0" d="M509.3,532.4c0.6,1,1.2,2,1.9,3c1.8,2.6,3.6,5.3,5.5,7.9c1.1,1.4,2.4,2.6,3.6,3.8c3.4,3.1,7.2,4,11.5,2.4  c2.7-1,5.3-2.1,8-3.3c1.5-0.6,2.9-1.3,4.4-2c1.7-0.8,3.1-0.3,4.4,0.9c1.4,1.4,1.7,3,0.3,4.4c-0.9,1-2,1.8-3.2,2.5  c-4.4,2.4-9,3.5-14,3.4c-1.9,0-3.6-0.5-5.3-1.3c-4.4-2.1-8-5.3-10.9-9.2c-2.7-3.5-4.6-7.5-6.2-11.6c-0.1-0.3-0.1-0.6-0.2-0.9  C509.1,532.4,509.2,532.4,509.3,532.4z"></path>
    <path class="st0" d="M485.3,531.7c-1.7,5.5-4.1,10.5-7.8,14.7c-2,2.2-4.4,4.2-6.8,6c-4,3.1-8.6,3.5-13.5,2.5  c-3.1-0.6-6.1-1.5-8.8-3.1c-1-0.6-2-1.3-2.9-2.1c-1.2-1.1-1.4-2.5-0.8-3.7c0.7-1.3,2.6-2.5,3.9-2.3c0.9,0.2,1.7,0.5,2.5,0.8  c2.6,1.1,5.1,2.3,7.6,3.5c0.9,0.4,1.8,0.7,2.7,1c5.2,2,9.7,0.8,13.5-3.1c3.4-3.4,6-7.3,8.4-11.3  C484.1,533.7,484.7,532.7,485.3,531.7z"></path>
    <path class="st0" d="M872.4,450.8c0.1,1.3,0.2,2.4,0.3,3.7c5-1.6,9.8-3.6,15.4-4c-0.5,0.5-0.8,0.9-1.2,1.2c-2.5,1.5-5,3.2-7.7,4.4  c-8.1,3.7-15.1,8.9-21.1,15.6c-1.3,1.4-2.7,2.7-4.3,3.9c0.2-0.5,0.4-1,0.7-1.5c1.9-3.9,3.8-7.7,5.8-11.6c1.5-2.9,3.3-5.6,5.7-7.9  C867.7,452.9,869.7,451.6,872.4,450.8z"></path>
    <path class="st0" d="M106.3,450.9c5.3,0,10.2,1.8,15.2,3.7c0.2-1.3,0.3-2.4,0.5-3.7c0.7,0.2,1.3,0.3,1.8,0.5c2.5,1.1,4.7,2.8,6.3,5  c1.7,2.4,3.4,4.9,4.8,7.5c2,3.8,3.8,7.7,5.5,11.7c-0.4-0.4-0.9-0.7-1.3-1.1c-2.1-2.1-4.3-4.3-6.4-6.5c-4-4.1-8.6-7.4-13.7-10  c-2.9-1.4-5.7-2.9-8.5-4.5C108.9,452.9,107.6,451.9,106.3,450.9z"></path>
    <path class="st0" d="M140.8,151.1c-2.5,5-4.9,10-7.7,14.8c-1.4,2.5-3.3,4.7-5.2,6.8c-1.5,1.7-3.5,2.7-5.9,3.4  c-0.2-1.2-0.3-2.3-0.5-3.6c-5,1.6-9.8,3.5-15.3,4c0.5-0.5,0.8-1,1.2-1.2c2.5-1.5,5-3.2,7.6-4.4c8-3.7,14.9-8.8,20.9-15.4  c1.4-1.6,3-3.1,4.5-4.6C140.5,151,140.6,151,140.8,151.1z"></path>
    <path class="st0" d="M888,176c-5.3-0.1-10.1-1.9-15.3-3.6c-0.1,1.3-0.3,2.3-0.4,3.8c-0.8-0.3-1.6-0.5-2.2-0.8  c-2.7-1.3-4.9-3.3-6.6-5.8c-1.6-2.4-3.1-4.8-4.5-7.4c-1.9-3.5-3.5-7.1-5.5-11.2c0.7,0.5,1.1,0.8,1.5,1.1c2.3,2.3,4.5,4.5,6.7,6.8  c4,4.1,8.6,7.4,13.7,10c2.7,1.4,5.4,2.7,8.1,4.2C885,174,886.5,175.1,888,176z"></path>
    <path class="st0" d="M776.2,483.8c0.7,1.5,1.4,3,2.1,4.6c2.7,6,7.6,8.1,13.8,7.6c6-0.5,10.4-3.4,12.6-9.1c0.3-0.7,0.5-1.5,0.9-2.6  c2,2,2.8,4.1,2.4,6.6c-0.8,4.8-5.2,9-10.6,10.2c-4.4,0.9-8.4-0.2-12-2.8C780.5,494.7,777.5,489.7,776.2,483.8z"></path>
    <path class="st0" d="M805.5,142.3c-0.1-0.3-0.3-0.5-0.4-0.8c-1.5-6.6-8.3-11.7-17.2-10.4c-4.4,0.6-7.5,2.9-9.5,6.9  c-0.8,1.7-1.6,3.5-2.5,5.1c1.6-6.4,4.9-11.7,10.7-15.2c6.2-3.8,13.9-2.7,18.6,2.6c2.2,2.4,3.4,5.3,2.5,8.6c-0.3,1.2-1.1,2.2-1.6,3.3  C805.9,142.4,805.7,142.4,805.5,142.3z"></path>
    <path class="st0" d="M217.8,485.1c-1.8,6.1-5.1,11-10.6,14.2c-6.8,3.9-13.8,1.8-18.1-2.8c-2.1-2.3-3.2-5-2.7-8.1  c0.3-1.5,0.8-2.9,2.3-3.9c2,7.1,6.5,11,13.7,11.5c3.5,0.2,6.9-0.2,9.8-2.5C215,491.3,216.1,488,217.8,485.1z"></path>
    <path class="st0" d="M188.7,142.5c-2.5-2-3.2-5.1-2-8.3c1.9-5,7.5-8.6,13.3-8.5c3,0.1,5.6,1,8.1,2.6c4.9,3.3,8,7.9,9.6,13.6  c-2-3.9-3.6-8.2-8.1-9.9c-4.3-1.6-8.6-1.6-12.8,0.3C192.4,134.3,189.9,137.8,188.7,142.5z"></path>
    <path class="st0" d="M572.5,535c7.6,0,14.4,6.2,15.9,14.1c1,5.3-0.3,9.8-4.2,13.5c-0.6,0.6-1.4,1.1-2.2,1.5  c-1.5,0.7-2.5,0.1-2.5-1.6c0-0.8,0.2-1.8,0.5-2.5c0.6-1.5,1.3-2.9,2-4.4c2.8-5.6,1.6-10.5-2.4-15c-1.4-1.5-3.1-2.7-4.7-4  C574.3,536.1,573.6,535.7,572.5,535z"></path>
    <path class="st0" d="M421.5,535c-1.7,1.2-3.2,2.1-4.3,3.2c-1.7,1.7-3.5,3.4-4.7,5.4c-2.1,3.4-2.5,7.2-0.7,11  c0.8,1.8,1.7,3.6,2.5,5.5c0.8,2,0.7,3.8-0.3,4.2c-1.5,0.6-2.6-0.5-3.6-1.4c-4-3.6-5.5-8.1-4.6-13.4C407.1,541.4,414,535,421.5,535z"></path>
    <path class="st0" d="M573.2,91.6c1-0.7,2.1-1.4,3.1-2.2c2.6-2,4.9-4.3,6.3-7.4c1.3-3.1,1.5-6.2,0.1-9.3c-0.8-1.8-1.7-3.6-2.5-5.4  c-0.4-0.9-0.6-2-0.6-3c0-1.6,1-2.1,2.4-1.4c0.8,0.4,1.5,0.9,2.2,1.5c3.9,3.7,5.3,8.2,4.3,13.5c-1.3,7.1-6.9,12.8-13.9,14.1  c-0.4,0.1-0.8,0.1-1.2,0.1C573.3,91.9,573.3,91.7,573.2,91.6z"></path>
    <path class="st0" d="M421.6,92c-8.5-0.2-14.8-7.3-15.9-14.5c-0.8-5.1,0.5-9.5,4.3-13.1c0.6-0.6,1.4-1.1,2.2-1.5  c1.5-0.8,2.5-0.2,2.5,1.5c0,0.9-0.2,1.9-0.5,2.8c-0.6,1.6-1.4,3.1-2.1,4.6c-2.5,5-1.5,9.7,1.9,13.8c1.7,2,3.9,3.5,5.9,5.2  C420.3,91.1,420.8,91.4,421.6,92z"></path>
    <path class="st0" d="M501.7,38.7c-0.5,2.1-1.5,3.9-3.2,5.7c-0.4-2.8-0.9-5.7-1.3-8.5c-0.1,0-0.2,0-0.3,0c-0.4,2.9-0.8,5.7-1.3,9.1  c-1.5-2-2.6-3.6-2.7-5.7c0.3,0.5,0.5,1.2,1.3,0.9c-0.3-1.9-1-3.7-0.8-5.5c0.2-1.7,1.2-3.4,2-5.4c-3.2,1.8-4,5.9-2.5,10  c-2.2-2.6-2.2-5.5-1.4-8.5c0.8-2.8,2.7-5,4.5-7.2c0.5-0.6,1.2-0.9,1.8-0.2c2.9,3.4,5.8,6.9,5.1,11.9  C502.8,36.3,502.1,37.5,501.7,38.7c0-0.4,0.1-0.9,0.3-1.3c0.7-2.8-0.1-5.2-1.7-7.4c-0.2-0.3-0.7-0.4-1.5-1c0.3,1,0.4,1.6,0.7,2  c1.9,2.7,2.1,5.4,0.4,8.3c-0.1,0.2,0,0.7,0.1,1c0.1,0.1,0.3,0.1,0.4,0.2C500.8,39.9,501.2,39.3,501.7,38.7z"></path>
    <path class="st0" d="M501.7,588.1c1.9,2.9,2.1,6.1,0.7,9.1c-1,2.3-2.7,4.3-4.2,6.3c-0.5,0.7-1.2,0.9-1.8,0.2  c-2.8-3.2-5.6-6.5-5.1-11.1c0.2-1.8,1-3.5,1.6-5.2c-0.2,0.9-0.4,1.9-0.6,2.8c-0.5,2.6,0.4,4.9,1.9,6.9c0.2,0.3,0.7,0.3,1.3,0.5  c-0.7-2-1.7-3.6-1.9-5.3c-0.2-1.8,0.5-3.6,0.9-5.8c-0.7,0.4-1.2,0.8-1.7,1.1c0.8-1.7,1.6-3.4,2.4-5.1c0.2,0,0.4,0.1,0.6,0.1  c0.4,2.8,0.8,5.6,1.3,8.3c0.1,0,0.2,0,0.3,0c0.4-2.8,0.9-5.6,1.3-8.4C500.2,584.3,501.2,586.1,501.7,588.1c-0.5-0.4-0.7-1.5-1.7-1.3  c0.3,2,1,3.8,0.9,5.6c-0.2,1.7-1.2,3.4-1.8,5.1c0.8-0.1,1.2-0.4,1.5-0.8C502.4,594.1,502.5,591.2,501.7,588.1z"></path>
    <path class="st0" d="M559.8,87.4c0.9,0,1.7,0,2.4,0c2.1-0.1,4.3,0,6.4-0.4c4.1-0.8,6.4-3.9,6.1-8.2c-0.1-1.1-0.3-2.2-0.4-3.3  c-0.3-2.4,0.4-4.4,2.6-5.6c3.3,0.9,4.8,2.8,4.7,6c-0.2,6.5-6.6,14-13,15.1C565.3,91.5,561.8,90.1,559.8,87.4z"></path>
    <path class="st0" d="M434.4,539.7c-0.7,0-1.4-0.1-2-0.1c-2.1,0.1-4.3-0.1-6.4,0.3c-4.4,0.8-6.8,4.3-6.3,8.7c0.2,1.5,0.3,3,0.4,4.5  c0.1,1.8-1,3-2.4,3.9c-0.8,0.5-3-0.6-3.8-2.1c-0.6-1.1-1-2.4-1-3.6c-0.1-6.8,6.7-14.6,13.5-15.3C429.6,535.7,432.3,537,434.4,539.7z  "></path>
    <path class="st0" d="M434.9,87.4c-2.7,2.7-5.5,4-8.8,3.5c-6.7-0.9-13.3-8.7-13.3-15.4c0-3.2,1.3-4.8,4.6-5.7  c2.1,1.2,2.8,3.1,2.5,5.5c-0.1,1-0.3,2.1-0.4,3.1c-0.5,4.4,1.8,7.7,6.2,8.6c1.9,0.4,4,0.3,6,0.4C432.5,87.4,433.4,87.4,434.9,87.4z"></path>
    <path class="st0" d="M559.4,539.6c2.4-2.6,5.1-3.8,8.3-3.6c0.9,0,1.7,0.3,2.6,0.5c5.6,1.8,10.7,8.3,11.2,14.1c0.2,3.1-1,5.2-3.5,6.2  c-0.9,0.3-1.5,0.2-2.1-0.4c-1.1-1-1.7-2.1-1.6-3.6c0.1-1.2,0.2-2.4,0.4-3.6c0.7-5.3-1.7-8.7-7-9.5c-2-0.3-4-0.1-6-0.2  C561,539.6,560.4,539.6,559.4,539.6z"></path>
    <path class="st0" d="M486.1,518c0.2,7-4.8,15-10.6,17.6c-3.5,1.5-6.4,1.2-9.8-1.5c0.7-0.1,1.1-0.2,1.6-0.3c3.1-0.4,5.8-1.6,8.3-3.5  c3.2-2.4,5.7-5.6,8-8.8C484.3,520.5,485,519.4,486.1,518z"></path>
    <path class="st0" d="M528.7,534c-3.8,3.1-7.5,3.3-11.4,0.8c-4.7-3.1-7.5-7.6-8.8-13c-0.2-0.8-0.3-1.7-0.4-2.6c0-0.2,0.1-0.4,0.2-0.9  c0.6,0.7,1,1.2,1.4,1.8c2,2.6,3.9,5.3,6.1,7.7C519.1,531.3,523.2,533.7,528.7,534z"></path>
    <path class="st0" d="M507.9,108.6c0.2-1.1,0.2-2.3,0.5-3.4c1.2-5.2,3.8-9.5,8.2-12.6c2.4-1.7,5.2-2.6,8.1-1.8c1.3,0.4,2.4,1.1,3.5,2  c-1.3,0.3-2.6,0.5-3.9,0.8c-3.2,0.9-5.9,2.6-8,5c-2.4,2.6-4.5,5.4-6.7,8.2c-0.5,0.6-0.9,1.2-1.4,1.9  C508.2,108.7,508.1,108.7,507.9,108.6z"></path>
    <path class="st0" d="M485.8,108.7c-1-1.4-1.9-2.8-2.9-4.1c-1.5-1.9-2.9-3.8-4.6-5.5c-3.5-3.5-5.9-5.2-12.3-6.3  c0.8-1.3,2.1-1.7,3.3-2c2.3-0.6,4.6-0.3,6.7,0.9c6.5,3.8,9.5,9.6,10.2,16.8C486.1,108.6,485.9,108.7,485.8,108.7z"></path>
    <path class="st0" d="M814.8,175.8c1-1.1,1.7-2.1,2.5-2.9c1.7-1.4,3.5-2.7,5.4-4c3.6-2.4,7.3-4.7,11.1-7c-3,4.7-5.9,9.4-10.4,12.9  c-2.1,1.6-4.4,2.5-7.2,1.7C816,176.5,815.6,176.2,814.8,175.8z"></path>
    <path class="st0" d="M160.9,162c5.1,3.5,10.3,6.9,15.4,10.4c1.2,0.8,2.5,1.8,2.7,3.6c-1.8,1.3-3.8,1.1-5.6,0.3  c-1.6-0.8-3.1-1.9-4.5-3.1c-1.4-1.3-2.6-2.8-3.8-4.3c-1.6-2.1-3.1-4.3-4.6-6.4C160.6,162.3,160.7,162.1,160.9,162z"></path>
    <path class="st0" d="M814.8,451.1c2.3-1.2,4.3-1.2,6.1-0.3c1.6,0.8,3.2,1.9,4.5,3.1c3.3,3.1,5.7,6.8,8,10.9c-3.2-2-6.5-4-9.7-6.1  C820.6,456.6,817.2,454.8,814.8,451.1z"></path>
    <path class="st0" d="M179.6,451.1c-1.3,1.4-2,2.4-2.9,3.2c-1.8,1.4-3.7,2.8-5.7,4c-3.4,2.2-6.8,4.4-10.2,6.5  c-0.1-0.1-0.2-0.2-0.2-0.3c2.7-4.5,5.7-8.7,9.7-12.1c2-1.7,4.2-2.6,6.9-2.2C177.8,450.4,178.4,450.7,179.6,451.1z"></path>
    <path class="st0" d="M567.2,527.8c-4-2.1-8.4-1.6-12.6-2.2c-2.7-0.4-4.1-0.9-5.8-2.3c3.2-1.3,6.4-1.9,9.8-1.9c1.9,0,3.7,0.1,5.4,1  C566.2,523.4,567.2,525,567.2,527.8z"></path>
    <path class="st0" d="M445.6,103.8c-4.9,1.7-9.6,2.7-14.5,1.2c-2.8-0.8-4-2.7-4.1-5.7c4.2,1.9,8.6,1.6,12.9,2.2  C441.8,101.7,443.7,102.1,445.6,103.8z"></path>
    <path class="st0" d="M478.2,537.5c-2.2,2.4-4.4,4.8-6.7,7.1c-1.2,1.1-2.7,2-4.2,2.6c-3,1.2-5.5,0.3-7.4-2.8c5.9-2.9,12.7-3.3,18-7.4  C477.9,537.2,478,537.4,478.2,537.5z"></path>
    <path class="st0" d="M426.9,527.4c0.1-2.7,1.5-4.6,4-5.3c1.8-0.6,3.7-0.7,5.6-0.7c3-0.1,5.9,0.7,9,1.9c-1.7,1.6-3.5,2-5.4,2.2  c-2,0.3-4.1,0.3-6.2,0.6C431.6,526.4,429.4,526.9,426.9,527.4z"></path>
    <path class="st0" d="M534.5,544.4c-2.3,3.2-4.8,4.1-8,2.6c-1.6-0.8-3.2-1.9-4.5-3.1c-1.6-1.5-3-3.3-4.5-4.9  c-0.4-0.5-0.8-1.1-1.1-1.8C521.8,541.1,528.5,541.6,534.5,544.4z"></path>
    <path class="st0" d="M477.7,89.7c-5.4-3.8-12.1-4.3-17.9-7.1c1.6-2.8,4.1-4,6.8-3c1.6,0.6,3.2,1.5,4.5,2.6  C473.8,84.2,475.9,86.8,477.7,89.7z"></path>
    <path class="st0" d="M548.7,103.7c2.1-1.6,4.2-2.1,6.4-2.3c1.9-0.2,3.8-0.2,5.7-0.5c2.1-0.3,4.2-0.8,6.4-1.3c0.6,1-0.1,1.9-0.5,2.7  c-1,1.8-2.7,2.7-4.7,3C557.5,106.1,553.2,105.5,548.7,103.7z"></path>
    <path class="st0" d="M516.5,89.7c2.6-3.7,5.4-7.3,9.5-9.5c3.4-1.8,5.9-1.1,8.5,2.1c-0.4,0.3-0.8,0.6-1.3,0.8  c-1.9,0.7-3.8,1.3-5.7,1.9C523.6,86.2,519.9,87.5,516.5,89.7z"></path>
    <path class="st0" d="M509.3,35.5c0.5,2.5-0.1,4.4-1.2,6.2c-0.8,1.4-1.9,2.6-2.9,3.8c-1.3,1.7-2.6,3.4-3.8,5  C500.9,46.7,503.6,41.3,509.3,35.5z"></path>
    <path class="st0" d="M484.9,591.4c-0.4-2.8,0.2-4.9,1.6-6.9c0.9-1.3,2-2.5,3-3.7c1.1-1.4,2.2-2.9,3.2-4.3  C493.4,581.1,489.9,585.9,484.9,591.4z"></path>
    <path class="st0" d="M501.3,576.4c1.9,2.3,3.7,4.6,5.6,6.9c1.9,2.3,2.9,4.9,2.6,8C505.4,588.5,501.7,581.6,501.3,576.4z"></path>
    <path class="st0" d="M485,35.3c3.7,4.9,7.9,9,7.9,15.3c-2-2.4-3.9-4.8-5.7-7.1C485.4,41.2,484.4,38.7,485,35.3z"></path>
    <path class="st0" d="M492.7,587.6c0.5-0.3,1-0.6,1.7-1.1c-0.4,2.2-1,4-0.9,5.8c0.1,1.7,1.1,3.4,1.9,5.3c-0.6-0.2-1.1-0.3-1.3-0.5  c-1.5-2.1-2.4-4.3-1.9-6.9c0.2-0.9,0.4-1.9,0.6-2.8C492.8,587.5,492.7,587.6,492.7,587.6z"></path>
    <path class="st0" d="M492.9,39.1c-1.6-4-0.7-8.1,2.5-10c-0.8,2-1.8,3.7-2,5.4c-0.2,1.8,0.5,3.6,0.8,5.5  C493.5,40.4,493.2,39.7,492.9,39.1C493,39.2,492.9,39.1,492.9,39.1z"></path>
    <path class="st0" d="M398,100.5c-0.6,0.1-1.3,0.3-1.9,0.4c-11.7,0.8-20.8,6.6-28.3,15.1c-2.5,2.9-3.9,6.4-4.2,10.2  c0,0.5-0.3,1-0.8,1.4c-0.1-0.4-0.5-0.8-0.4-1.1c0.4-2,0.5-4.2,1.3-6c0.9-2.2,2.2-4.3,3.8-6.1c6.7-7.4,14.8-12.6,24.7-14.5  c1.5-0.3,3-0.4,4.5-0.4c0.5,0,0.9,0.2,1.4,0.4C398,100.1,398,100.3,398,100.5z"></path>
    <path class="st0" d="M631.2,127.7c-0.2-0.5-0.4-1.1-0.5-1.6c-0.3-4.1-1.9-7.6-4.6-10.6c-6.8-7.6-15-12.8-25.3-14.5  c-1.1-0.2-2.2-0.1-3.3-0.3c-0.5-0.1-0.9-0.3-1.4-0.5c0-0.2,0-0.4,0-0.6c0.7-0.1,1.5-0.2,2.2-0.1c4.3,0.1,8.4,1.2,12.2,3  c6.5,3,12.2,7,16.8,12.5c2.6,3.1,4.3,6.7,4.5,10.9c0,0.6-0.1,1.1-0.2,1.7C631.6,127.7,631.4,127.7,631.2,127.7z"></path>
    <path class="st0" d="M631.8,499.1c0.1,0.8,0.2,1.5,0.2,2.1c-0.2,3.7-1.6,7.1-3.9,9.9c-7.7,9.2-17.3,15.3-29.6,16.4  c-0.7,0.1-1.5-0.1-2.2-0.2c0-0.2-0.1-0.4-0.1-0.7c0.6-0.2,1.2-0.4,1.8-0.5c10.2-0.5,18.4-5.4,25.7-12.1c3.5-3.2,6-7.1,6.8-11.9  c0.2-0.9,0.3-1.9,0.5-2.8C631,499.4,631.2,499.4,631.8,499.1z"></path>
    <path class="st0" d="M397.9,527.3c-0.7,0.1-1.3,0.2-2,0.2c-3.8-0.3-7.4-1-11-2.4c-6.3-2.6-11.8-6.4-16.6-11.2c-2.9-3-5-6.4-5.9-10.5  c-0.3-1.3-0.6-2.6,0.2-4.3c0.3,0.8,0.6,1.2,0.7,1.7c0.3,4.4,2.1,8.2,5.1,11.4c6.6,7,14.3,12,23.9,13.7c1.1,0.2,2.2,0.2,3.3,0.3  c0.8,0.1,1.5,0.3,2.2,0.4C398,526.7,397.9,527,397.9,527.3z"></path>
    <path class="st0" d="M861.7,471.9c1.5-1,2.9-2.3,4.5-2.9c4.8-1.9,9.7-3.5,14.7-5.1c1.1-0.4,1.2-0.2,2.7,0.6  c-2.1,0.5-3.9,0.9-5.7,1.5c-1.9,0.6-3.7,1.4-5.6,2.1c-1.8,0.7-3.6,1.3-5.4,2c-1.7,0.6-2.8,2.6-4.8,2.5  C861.9,472.3,861.8,472.1,861.7,471.9z"></path>
    <path class="st0" d="M110.6,464.4c1.3-1.1,2.2-0.8,2.9-0.5c6.6,2.1,13.4,3.6,19.4,8.3c-0.8,0.1-1.2,0.2-1.6,0.2  c-0.1,0-0.3-0.1-0.4-0.2c-3.8-3.1-8.7-4-13.1-5.8c-1.5-0.6-3.2-0.9-4.8-1.4C112.3,464.9,111.7,464.7,110.6,464.4z"></path>
    <path class="st0" d="M132.6,155.5c-0.7,0.3-1.5,0.6-2.1,1c-2.2,1.6-4.7,2.6-7.3,3.4c-2.5,0.8-4.9,1.8-7.4,2.6  c-1.5,0.5-3.1,1-4.8,0.1c0.4-0.2,0.7-0.5,1.1-0.5c5.2-0.9,9.8-3.1,14.7-4.9c1.5-0.5,2.7-1.7,4.1-2.5  C131.8,154.1,132.5,154.2,132.6,155.5C132.5,155.5,132.6,155.5,132.6,155.5z"></path>
    <path class="st0" d="M883.1,163c-1.6,0.7-3.3,0.1-4.7-0.5c-5.7-2.2-12-3.2-16.5-7.9c2.1-0.2,3.2,1.6,4.9,2.2  c1.9,0.7,3.7,1.4,5.6,2.1c1.8,0.7,3.6,1.4,5.4,2c1.8,0.6,3.6,1,5.5,1.4C883.1,162.6,883.1,162.8,883.1,163z"></path>
    <path class="st0" d="M848.6,150.5c1.6,0.9,1.7,2.5,1.9,3.9c0.6,3.4,0.3,6.7-1,10c-1.1-0.5-0.8-1.2-0.6-1.7c0.9-3.6,1.1-7.2-0.4-10.8  c-0.1-0.3-0.1-0.6-0.2-0.9C848.3,150.9,848.3,150.9,848.6,150.5z"></path>
    <path class="st0" d="M145.6,164.2c-2.9-2.6-2.6-11.1,0.1-13.6c0.5,1.7-0.8,3-0.8,4.5c0,1.5-0.2,3-0.1,4.5  C144.9,161.1,145.3,162.6,145.6,164.2z"></path>
    <path class="st0" d="M849.5,462.7c1.3,2.5,1.4,5.3,1.2,8.1c-0.1,2-0.4,4-2.1,5.9c-0.6-2,0.7-3.3,0.7-4.7c0-1.5,0.2-3,0.1-4.5  c-0.1-1.5-0.5-3.1-0.8-4.6C848.9,462.8,849.2,462.8,849.5,462.7z"></path>
    <path class="st0" d="M145.5,462.8c-0.3,2.2-0.8,4.5-0.7,6.7c0.1,2.2,0.7,4.5,1.1,6.7c-0.9,0.3-1.1-0.5-1.3-1c-1-2.4-1.2-5-0.9-7.5  c0.2-1.4,0.5-2.8,0.8-4.2c0.1-0.3,0.4-0.6,0.6-0.8C145.2,462.7,145.3,462.8,145.5,462.8z"></path>
    <path class="st0" d="M510.2,573.8c-3-1.5-7.6-12.6-7.1-16.8c0.4,0.3,0.8,0.5,0.9,0.7c1.1,5.5,3.2,10.5,6.2,15.2  C510.3,573.1,510.2,573.3,510.2,573.8z"></path>
    <path class="st0" d="M503.3,69.8c-0.6-1.6-0.4-3,1.5-7.8c2-5.2,3.6-7.9,5.2-8.7c0.1,0.1,0.1,0.1,0.2,0.2c0,0.1,0.1,0.2,0.1,0.2  c-3,5.1-4.9,10.6-6.7,16.1C503.5,69.8,503.4,69.8,503.3,69.8z"></path>
    <path class="st0" d="M490.6,69.9c-0.9-2.8-1.6-5.7-2.8-8.4c-1.1-2.7-2.6-5.3-4-8.1c1.4-0.2,1.7,0.8,2.1,1.4  c2.7,4.6,4.9,9.5,5.5,14.9C491.1,69.7,490.9,69.8,490.6,69.9z"></path>
    <path class="st0" d="M491.1,557.2c0.6,2.1-1.1,7.8-3.9,12.9c-0.7,1.3-1.2,3-2.8,3.7c-0.2-0.1-0.3-0.2-0.5-0.3  c0.9-1.7,1.9-3.3,2.7-5.1c0.9-1.9,1.7-3.8,2.4-5.7c0.6-1.8,1.1-3.7,1.6-5.6C490.7,557.1,490.9,557.2,491.1,557.2z"></path>
    <path class="st0" d="M501.7,38.7c-0.5,0.6-0.9,1.2-1.4,1.7c-0.1-0.1-0.3-0.1-0.4-0.2c0-0.3-0.2-0.8-0.1-1c1.7-2.9,1.5-5.6-0.4-8.3  c-0.3-0.4-0.3-0.9-0.7-2c0.8,0.5,1.3,0.7,1.5,1c1.6,2.2,2.4,4.7,1.7,7.4C501.8,37.8,501.8,38.3,501.7,38.7  C501.7,38.8,501.7,38.7,501.7,38.7z"></path>
    <path class="st0" d="M501.7,588.1c0.8,3,0.8,6-1.2,8.6c-0.3,0.4-0.7,0.7-1.5,0.8c0.6-1.7,1.7-3.4,1.8-5.1c0.2-1.8-0.5-3.6-0.9-5.6  C501,586.6,501.1,587.7,501.7,588.1C501.7,588.2,501.7,588.1,501.7,588.1z"></path>
</svg>